<svg width="840" height="343" viewBox="0 0 840 343" fill="none" xmlns="http://www.w3.org/2000/svg">
<line x1="1.00002" y1="341.5" x2="751" y2="341.5" stroke="#E2E4E7"/>
<line x1="1.50002" y1="1" x2="1.5" y2="342" stroke="#E2E4E7"/>
<line x1="126.5" y1="1" x2="126.5" y2="342" stroke="#E2E4E7"/>
<line x1="251.5" y1="1" x2="251.5" y2="342" stroke="#E2E4E7"/>
<line x1="376.5" y1="1" x2="376.5" y2="342" stroke="#E2E4E7"/>
<line x1="501.5" y1="1" x2="501.5" y2="342" stroke="#E2E4E7"/>
<line x1="626.5" y1="1" x2="626.5" y2="342" stroke="#E2E4E7"/>
<line x1="751.5" y1="1" x2="751.5" y2="342" stroke="#E2E4E7"/>
<path d="M6 305.94H8.6555V336.336H6V305.94Z" fill="#E6E8EB"/>
<path d="M12.1961 313.626H14.8516V336.336H12.1961V313.626Z" fill="#E6E8EB"/>
<path d="M18.3923 331.713H21.0478V336.336H18.3923V331.713Z" fill="#E6E8EB"/>
<path d="M24.5886 316.143H27.2441V336.336H24.5886V316.143Z" fill="#E6E8EB"/>
<path d="M30.7847 330.75H33.4402V336.336H30.7847V330.75Z" fill="#E6E8EB"/>
<path d="M36.9808 319.272H39.6363V336.336H36.9808V319.272Z" fill="#E6E8EB"/>
<path d="M43.1771 313.22H45.8326V336.336H43.1771V313.22Z" fill="#E6E8EB"/>
<path d="M49.3732 326.529H52.0287V336.336H49.3732V326.529Z" fill="#E6E8EB"/>
<path d="M55.5694 319.053H58.2249V336.336H55.5694V319.053Z" fill="#E6E8EB"/>
<path d="M61.7655 318.515H64.421V336.336H61.7655V318.515Z" fill="#E6E8EB"/>
<path d="M67.9617 313.907H70.6172V336.336H67.9617V313.907Z" fill="#E6E8EB"/>
<path d="M74.1579 318.926H76.8134V336.336H74.1579V318.926Z" fill="#E6E8EB"/>
<path d="M80.3541 319.819H83.0096V336.336H80.3541V319.819Z" fill="#E6E8EB"/>
<path d="M86.5502 323.223H89.2057V336.336H86.5502V323.223Z" fill="#E6E8EB"/>
<path d="M92.7464 323.033H95.4019V336.336H92.7464V323.033Z" fill="#E6E8EB"/>
<path d="M98.9426 325.643H101.598V336.336H98.9426V325.643Z" fill="#E6E8EB"/>
<path d="M105.139 324.145H107.794V336.336H105.139V324.145Z" fill="#E6E8EB"/>
<path d="M111.335 331.374H113.99V336.336H111.335V331.374Z" fill="#E6E8EB"/>
<path d="M117.531 328.635H120.187V336.336H117.531V328.635Z" fill="#E6E8EB"/>
<path d="M123.727 327.596H126.383V336.336H123.727V327.596Z" fill="#E6E8EB"/>
<path d="M129.923 305H132.579V336.336H129.923V305Z" fill="#E6E8EB"/>
<path d="M136.12 317.179H138.775V336.336H136.12V317.179Z" fill="#E6E8EB"/>
<path d="M142.316 321.988H144.971V336.336H142.316V321.988Z" fill="#E6E8EB"/>
<path d="M148.512 327.799H151.167V336.336H148.512V327.799Z" fill="#E6E8EB"/>
<path d="M154.708 314.465H157.364V336.336H154.708V314.465Z" fill="#E6E8EB"/>
<path d="M160.904 321.279H163.56V336.336H160.904V321.279Z" fill="#E6E8EB"/>
<path d="M167.1 309.61H169.756V336.336H167.1V309.61Z" fill="#E6E8EB"/>
<path d="M173.297 317.296H175.952V336.336H173.297V317.296Z" fill="#E6E8EB"/>
<path d="M179.493 331.77H182.148V336.336H179.493V331.77Z" fill="#E6E8EB"/>
<path d="M185.689 330.706H188.344V336.336H185.689V330.706Z" fill="#E6E8EB"/>
<path d="M191.885 327.365H194.541V336.336H191.885V327.365Z" fill="#E6E8EB"/>
<path d="M198.081 335.646H200.737V336.336H198.081V335.646Z" fill="#E6E8EB"/>
<path d="M204.278 320.598H206.933V336.336H204.278V320.598Z" fill="#E6E8EB"/>
<path d="M210.474 312.752H213.129V336.336H210.474V312.752Z" fill="#E6E8EB"/>
<path d="M216.67 312.299H219.325V336.336H216.67V312.299Z" fill="#E6E8EB"/>
<path d="M222.866 335.997H225.522V336.336H222.866V335.997Z" fill="#E6E8EB"/>
<path d="M229.062 313.325H231.718V336.336H229.062V313.325Z" fill="#E6E8EB"/>
<path d="M235.258 311.419H237.914V336.336H235.258V311.419Z" fill="#E6E8EB"/>
<path d="M241.455 306.377H244.11V336.336H241.455V306.377Z" fill="#E6E8EB"/>
<path d="M247.651 325.874H250.306V336.336H247.651V325.874Z" fill="#E6E8EB"/>
<path d="M253.847 322.704H256.502V336.336H253.847V322.704Z" fill="#E6E8EB"/>
<path d="M260.043 306.697H262.699V336.336H260.043V306.697Z" fill="#E6E8EB"/>
<path d="M266.239 315.877H268.895V336.336H266.239V315.877Z" fill="#E6E8EB"/>
<path d="M272.435 309.351H275.091V336.336H272.435V309.351Z" fill="#E6E8EB"/>
<path d="M278.632 318.024H281.287V336.336H278.632V318.024Z" fill="#E6E8EB"/>
<path d="M284.828 328.366H287.483V336.336H284.828V328.366Z" fill="#E6E8EB"/>
<path d="M291.024 319.367H293.679V336.336H291.024V319.367Z" fill="#E6E8EB"/>
<path d="M297.22 317.46H299.876V336.336H297.22V317.46Z" fill="#E6E8EB"/>
<path d="M303.416 323.607H306.072V336.336H303.416V323.607Z" fill="#E6E8EB"/>
<path d="M309.612 317.818H312.268V336.336H309.612V317.818Z" fill="#E6E8EB"/>
<path d="M315.809 324.62H318.464V336.336H315.809V324.62Z" fill="#E6E8EB"/>
<path d="M322.005 316.241H324.66V336.336H322.005V316.241Z" fill="#E6E8EB"/>
<path d="M328.201 310.301H330.856V336.336H328.201V310.301Z" fill="#E6E8EB"/>
<path d="M334.397 305.405H337.053V336.336H334.397V305.405Z" fill="#E6E8EB"/>
<path d="M340.593 334.424H343.249V336.336H340.593V334.424Z" fill="#E6E8EB"/>
<path d="M346.789 316.529H349.445V336.336H346.789V316.529Z" fill="#E6E8EB"/>
<path d="M352.986 328.733H355.641V336.336H352.986V328.733Z" fill="#E6E8EB"/>
<path d="M359.182 306.292H361.837V336.336H359.182V306.292Z" fill="#E6E8EB"/>
<path d="M365.378 314.595H368.033V336.336H365.378V314.595Z" fill="#E6E8EB"/>
<path d="M371.574 320.111H374.23V336.336H371.574V320.111Z" fill="#E6E8EB"/>
<path d="M377.77 321.653H380.426V336.336H377.77V321.653Z" fill="#E6E8EB"/>
<path d="M383.966 327.907H386.622V336.336H383.966V327.907Z" fill="#E6E8EB"/>
<path d="M390.163 326.209H392.818V336.336H390.163V326.209Z" fill="#E6E8EB"/>
<path d="M396.359 306.298H399.014V336.336H396.359V306.298Z" fill="#E6E8EB"/>
<path d="M402.555 335.05H405.211V336.336H402.555V335.05Z" fill="#E6E8EB"/>
<path d="M408.751 320.133H411.407V336.336H408.751V320.133Z" fill="#E6E8EB"/>
<path d="M414.947 333.401H417.603V336.336H414.947V333.401Z" fill="#E6E8EB"/>
<path d="M421.144 335.56H423.799V336.336H421.144V335.56Z" fill="#E6E8EB"/>
<path d="M427.34 328.182H429.995V336.336H427.34V328.182Z" fill="#E6E8EB"/>
<path d="M433.536 321.561H436.191V336.336H433.536V321.561Z" fill="#E6E8EB"/>
<path d="M439.732 325.462H442.388V336.336H439.732V325.462Z" fill="#E6E8EB"/>
<path d="M445.928 330.146H448.584V336.336H445.928V330.146Z" fill="#E6E8EB"/>
<path d="M452.124 326.073H454.78V336.336H452.124V326.073Z" fill="#E6E8EB"/>
<path d="M458.321 310.399H460.976V336.336H458.321V310.399Z" fill="#E6E8EB"/>
<path d="M464.517 328.489H467.172V336.336H464.517V328.489Z" fill="#E6E8EB"/>
<path d="M470.713 336.023H473.368V336.336H470.713V336.023Z" fill="#E6E8EB"/>
<path d="M476.909 308.113H479.565V336.336H476.909V308.113Z" fill="#E6E8EB"/>
<path d="M483.105 321.52H485.761V336.336H483.105V321.52Z" fill="#E6E8EB"/>
<path d="M489.301 305.26H491.957V336.336H489.301V305.26Z" fill="#E6E8EB"/>
<path d="M495.498 333.616H498.153V336.336H495.498V333.616Z" fill="#E6E8EB"/>
<path d="M501.694 331.127H504.349V336.336H501.694V331.127Z" fill="#E6E8EB"/>
<path d="M507.89 327.647H510.546V336.336H507.89V327.647Z" fill="#E6E8EB"/>
<path d="M514.086 327.676H516.742V336.336H514.086V327.676Z" fill="#E6E8EB"/>
<path d="M520.282 316.966H522.938V336.336H520.282V316.966Z" fill="#E6E8EB"/>
<path d="M526.479 313.303H529.134V336.336H526.479V313.303Z" fill="#E6E8EB"/>
<path d="M532.675 322.011H535.33V336.336H532.675V322.011Z" fill="#E6E8EB"/>
<path d="M538.871 321.609H541.526V336.336H538.871V321.609Z" fill="#E6E8EB"/>
<path d="M545.067 332.609H547.723V336.336H545.067V332.609Z" fill="#E6E8EB"/>
<path d="M551.263 318.166H553.919V336.336H551.263V318.166Z" fill="#E6E8EB"/>
<path d="M557.459 314.211H560.115V336.336H557.459V314.211Z" fill="#E6E8EB"/>
<path d="M563.656 306.32H566.311V336.336H563.656V306.32Z" fill="#E6E8EB"/>
<path d="M569.852 306.65H572.507V336.336H569.852V306.65Z" fill="#E6E8EB"/>
<path d="M576.048 310.133H578.703V336.336H576.048V310.133Z" fill="#E6E8EB"/>
<path d="M582.244 329.262H584.9V336.336H582.244V329.262Z" fill="#E6E8EB"/>
<path d="M588.44 310.728H591.096V336.336H588.44V310.728Z" fill="#E6E8EB"/>
<path d="M594.636 318.141H597.292V336.336H594.636V318.141Z" fill="#E6E8EB"/>
<path d="M600.833 306.406H603.488V336.336H600.833V306.406Z" fill="#E6E8EB"/>
<path d="M607.029 326.194H609.684V336.336H607.029V326.194Z" fill="#E6E8EB"/>
<path d="M613.225 322.565H615.88V336.336H613.225V322.565Z" fill="#E6E8EB"/>
<path d="M619.421 335.44H622.077V336.336H619.421V335.44Z" fill="#E6E8EB"/>
<path d="M625.617 332.698H628.273V336.336H625.617V332.698Z" fill="#E6E8EB"/>
<path d="M631.813 335.829H634.469V336.336H631.813V335.829Z" fill="#E6E8EB"/>
<path d="M638.01 317.505H640.665V336.336H638.01V317.505Z" fill="#E6E8EB"/>
<path d="M644.206 308.651H646.861V336.336H644.206V308.651Z" fill="#E6E8EB"/>
<path d="M650.402 318.565H653.057V336.336H650.402V318.565Z" fill="#E6E8EB"/>
<path d="M656.598 320.446H659.254V336.336H656.598V320.446Z" fill="#E6E8EB"/>
<path d="M662.794 322.378H665.45V336.336H662.794V322.378Z" fill="#E6E8EB"/>
<path d="M668.99 325.079H671.646V336.336H668.99V325.079Z" fill="#E6E8EB"/>
<path d="M675.187 306.998H677.842V336.336H675.187V306.998Z" fill="#E6E8EB"/>
<path d="M681.383 326.751H684.038V336.336H681.383V326.751Z" fill="#E6E8EB"/>
<path d="M687.579 322.989H690.234V336.336H687.579V322.989Z" fill="#E6E8EB"/>
<path d="M693.775 331.95H696.431V336.336H693.775V331.95Z" fill="#E6E8EB"/>
<path d="M699.971 317.679H702.627V336.336H699.971V317.679Z" fill="#E6E8EB"/>
<path d="M706.167 305.256H708.823V336.336H706.167V305.256Z" fill="#E6E8EB"/>
<path d="M712.364 321.779H715.019V336.336H712.364V321.779Z" fill="#E6E8EB"/>
<path d="M718.56 308.423H721.215V336.336H718.56V308.423Z" fill="#E6E8EB"/>
<path d="M724.756 308.027H727.411V336.336H724.756V308.027Z" fill="#E6E8EB"/>
<path d="M730.952 322.97H733.608V336.336H730.952V322.97Z" fill="#E6E8EB"/>
<path d="M737.148 314.642H739.804V336.336H737.148V314.642Z" fill="#E6E8EB"/>
<path d="M743.344 306.039H746V336.336H743.344V306.039Z" fill="#E6E8EB"/>
<path d="M9.84956 257.75L1 274.911V343H751V150.911L743.257 154.232L733.854 151.464L722.792 153.125L714.496 150.357L695.69 152.018L686.841 147.589L677.991 153.679L668.589 163.643L659.739 155.893H649.783L640.934 152.018L632.084 163.643L622.128 169.179L613.279 127.107L604.429 150.911L594.473 152.018L586.73 144.821L576.774 194.089L567.925 200.179L557.969 195.75L549.673 185.786L540.27 190.768L531.42 152.571L522.018 129.875L503.766 162.536L494.916 143.161L485.513 140.393L476.664 117.696L467.261 124.893L458.412 109.946L449.009 127.661L440.159 99.9821L431.31 96.6607L421.907 117.696L413.058 113.821L403.655 87.8036L394.252 145.929L385.403 131.536L376 134.304L366.597 111.054L357.195 119.911L348.898 142.607L339.496 135.964L330.646 61.2321L320.69 51.2679L311.288 64L302.438 67.3214L293.589 56.25L284.186 64L275.336 45.1786L266.487 58.4643L256.531 103.304L248.235 37.9821L238.832 14.1786L229.429 47.9464L220.58 18.0536L211.177 47.9464L201.774 33L194.031 56.25L183.522 68.9821L175.226 49.6071L165.27 2L155.867 70.6429L147.018 116.036L138.168 92.7857L119.916 168.625L110.513 170.839L101.664 163.089L93.3673 171.393L83.4115 163.089L65.1593 70.6429L55.7566 205.161L46.9071 263.286L38.0575 268.821L29.208 266.054L18.6991 268.821L9.84956 257.75Z" fill="url(#paint0_linear_1_3)"/>
<path d="M1 275L9.84956 257.834L18.6991 268.909L29.208 266.14L38.0575 268.909L46.9071 263.371L55.7566 205.227L65.1593 70.6653L83.4115 163.142L93.3673 171.448L101.664 163.142L110.513 170.895L119.916 168.68L138.168 92.8154L147.018 116.073L155.867 70.6653L165.27 2L175.226 49.6227L183.522 69.0041L194.031 56.2677L201.774 33.0101L211.177 47.9615L220.58 18.0588L229.429 47.9615L238.832 14.1826L248.235 37.9939L256.531 103.337L266.487 58.4828L275.336 45.1927L284.186 64.0203L293.589 56.2677L302.438 67.3428L311.288 64.0203L320.69 51.284L330.646 61.2515L339.496 136.008L348.898 142.653L357.195 119.949L366.597 111.089L376 134.347L385.403 131.578L394.252 145.976L403.655 87.8316L413.058 113.858L421.907 117.734L431.31 96.6917L440.159 100.014L449.009 127.702L458.412 109.982L467.261 124.933L476.664 117.734L485.513 140.438L494.916 143.207L503.766 162.588L522.018 129.917L531.42 152.621L540.27 190.83L549.673 185.846L557.969 195.813L567.925 200.243L576.774 194.152L586.73 144.868L594.473 152.067L604.429 150.959L613.279 127.148L622.128 169.233L632.084 163.696L640.934 152.067L649.783 155.943H659.739L668.589 163.696L677.991 153.728L686.841 147.637L695.69 152.067L714.496 150.406L722.792 153.174L733.854 151.513L743.257 154.282L751 150.959" stroke="#4B40EE" stroke-width="2" stroke-linejoin="round"/>
<line x1="751" y1="61.5" x2="1" y2="61.4999" stroke="#999999" stroke-dasharray="5 5"/>
<line x1="331.5" y1="-2.18557e-08" x2="331.5" y2="341" stroke="#999999" stroke-dasharray="5 5"/>
<rect x="731" y="134" width="98" height="33" rx="5" fill="#4B40EE"/>
<path d="M747.971 153.273C747.971 154.018 748.223 154.615 748.727 155.066C749.23 155.518 749.828 155.743 750.52 155.743C751.211 155.743 751.797 155.521 752.277 155.075C752.758 154.63 753.001 154.032 753.007 153.282C753.007 152.532 752.764 151.935 752.277 151.489C751.785 151.05 751.188 150.83 750.484 150.83C749.781 150.83 749.187 151.053 748.7 151.498C748.214 151.943 747.971 152.535 747.971 153.273ZM750.792 149.318C751.981 149.318 752.945 149.67 753.684 150.373C754.422 151.076 754.791 152.043 754.791 153.273C754.791 154.498 754.372 155.471 753.534 156.191C752.696 156.912 751.665 157.272 750.44 157.272C749.216 157.272 748.155 156.818 747.259 155.91C746.362 155.002 745.914 153.654 745.914 151.867C745.914 149.758 746.479 148.097 747.61 146.884C748.741 145.671 750.18 145.064 751.926 145.064C752.998 145.064 753.839 145.281 754.448 145.715L753.912 147.156C753.338 146.822 752.641 146.652 751.82 146.646C750.631 146.646 749.667 147.039 748.929 147.824C748.19 148.609 747.786 149.611 747.716 150.83C747.979 150.396 748.378 150.036 748.911 149.749C749.444 149.462 750.071 149.318 750.792 149.318ZM756.487 146.954V145.337H764.406V146.919L761.075 149.995C762.024 150.001 762.862 150.314 763.589 150.936C764.315 151.557 764.679 152.406 764.679 153.484C764.679 154.562 764.301 155.465 763.545 156.191C762.795 156.924 761.77 157.29 760.469 157.29C759.168 157.29 758.131 156.933 757.357 156.218C756.584 155.503 756.168 154.636 756.109 153.616L757.832 153.221C757.867 153.977 758.128 154.586 758.614 155.049C759.101 155.512 759.716 155.743 760.46 155.743C761.204 155.743 761.796 155.535 762.235 155.119C762.675 154.697 762.895 154.158 762.895 153.502C762.895 152.846 762.66 152.333 762.191 151.964C761.723 151.595 761.166 151.407 760.521 151.401C760.17 151.407 759.827 151.469 759.493 151.586L758.623 150.127L762.068 146.954H756.487ZM766.814 156.736C766.586 156.514 766.472 156.229 766.472 155.884C766.472 155.538 766.598 155.245 766.85 155.005C767.102 154.765 767.424 154.645 767.816 154.645C768.209 154.645 768.546 154.794 768.827 155.093C769.108 155.392 769.249 155.811 769.249 156.35C769.249 157.428 768.974 158.26 768.423 158.846C767.872 159.432 767.26 159.771 766.586 159.865V158.925C767.02 158.831 767.371 158.594 767.641 158.213C767.91 157.832 768.057 157.422 768.08 156.982C767.998 157.041 767.825 157.07 767.562 157.07C767.298 157.07 767.049 156.959 766.814 156.736ZM774.241 157H772.519V148.773H769.688V147.534C770.479 147.522 771.147 147.314 771.692 146.91C772.231 146.506 772.565 145.981 772.694 145.337H774.241V157ZM784.278 145.337V147.024C783.979 147.265 783.687 147.522 783.399 147.798C783.112 148.073 782.731 148.516 782.257 149.125C781.782 149.734 781.363 150.385 781 151.076C780.637 151.762 780.297 152.629 779.98 153.678C779.664 154.727 779.453 155.834 779.348 157H777.528C777.669 155.166 778.05 153.543 778.671 152.131C779.292 150.719 779.928 149.611 780.578 148.809C781.223 148.006 781.729 147.455 782.099 147.156L782.336 146.954H775.762V145.337H784.278ZM791.345 150.848C791.843 150.402 792.092 149.813 792.092 149.081C792.092 148.349 791.84 147.754 791.336 147.297C790.832 146.84 790.24 146.611 789.561 146.611C788.881 146.611 788.295 146.837 787.803 147.288C787.311 147.739 787.062 148.337 787.056 149.081C787.056 149.825 787.302 150.42 787.794 150.865C788.28 151.311 788.869 151.533 789.561 151.533C790.252 151.533 790.847 151.305 791.345 150.848ZM788.277 155.682C789.607 155.682 790.606 155.301 791.274 154.539C791.942 153.777 792.294 152.778 792.329 151.542C792.101 151.964 791.726 152.318 791.204 152.605C790.683 152.893 790.05 153.036 789.306 153.036C788.228 153.036 787.284 152.688 786.476 151.99C785.673 151.287 785.271 150.335 785.271 149.134C785.271 147.933 785.693 146.954 786.537 146.198C787.381 145.442 788.409 145.064 789.622 145.064C790.835 145.064 791.887 145.521 792.777 146.436C793.668 147.35 794.11 148.68 794.104 150.426C794.099 152.611 793.609 154.299 792.637 155.488C791.664 156.678 790.211 157.272 788.277 157.272C787.82 157.267 787.328 157.199 786.801 157.07C786.273 156.941 785.866 156.78 785.579 156.587L786.15 155.128C786.76 155.497 787.469 155.682 788.277 155.682ZM795.906 156.728C795.666 156.487 795.546 156.194 795.546 155.849C795.546 155.503 795.666 155.207 795.906 154.961C796.141 154.715 796.434 154.592 796.785 154.592C797.137 154.592 797.436 154.715 797.682 154.961C797.928 155.207 798.051 155.503 798.051 155.849C798.051 156.194 797.928 156.487 797.682 156.728C797.436 156.968 797.14 157.088 796.794 157.088C796.448 157.088 796.152 156.968 795.906 156.728ZM807.552 145.337V147.024C807.253 147.265 806.96 147.522 806.673 147.798C806.386 148.073 806.005 148.516 805.53 149.125C805.056 149.734 804.637 150.385 804.273 151.076C803.91 151.762 803.57 152.629 803.254 153.678C802.938 154.727 802.727 155.834 802.621 157H800.802C800.942 155.166 801.323 153.543 801.944 152.131C802.565 150.719 803.201 149.611 803.852 148.809C804.496 148.006 805.003 147.455 805.372 147.156L805.609 146.954H799.035V145.337H807.552ZM812.737 157H811.015V148.773H808.185V147.534C808.976 147.522 809.644 147.314 810.188 146.91C810.728 146.506 811.062 145.981 811.19 145.337H812.737V157Z" fill="white"/>
<rect x="731" y="45" width="109" height="33" rx="5" fill="#1A243A"/>
<path d="M747.971 64.2734C747.971 65.0176 748.223 65.6152 748.727 66.0664C749.23 66.5176 749.828 66.7432 750.52 66.7432C751.211 66.7432 751.797 66.5205 752.277 66.0752C752.758 65.6299 753.001 65.0322 753.007 64.2822C753.007 63.5322 752.764 62.9346 752.277 62.4893C751.785 62.0498 751.188 61.8301 750.484 61.8301C749.781 61.8301 749.187 62.0527 748.7 62.498C748.214 62.9434 747.971 63.5352 747.971 64.2734ZM750.792 60.3184C751.981 60.3184 752.945 60.6699 753.684 61.373C754.422 62.0762 754.791 63.043 754.791 64.2734C754.791 65.498 754.372 66.4707 753.534 67.1914C752.696 67.9121 751.665 68.2725 750.44 68.2725C749.216 68.2725 748.155 67.8184 747.259 66.9102C746.362 66.002 745.914 64.6543 745.914 62.8672C745.914 60.7578 746.479 59.0967 747.61 57.8838C748.741 56.6709 750.18 56.0645 751.926 56.0645C752.998 56.0645 753.839 56.2812 754.448 56.7148L753.912 58.1562C753.338 57.8223 752.641 57.6523 751.82 57.6465C750.631 57.6465 749.667 58.0391 748.929 58.8242C748.19 59.6094 747.786 60.6113 747.716 61.8301C747.979 61.3965 748.378 61.0361 748.911 60.749C749.444 60.4619 750.071 60.3184 750.792 60.3184ZM761.796 63.7373V58.0244L757.691 63.7373H761.796ZM756.074 65.3721V63.3418L761.075 56.3369H763.51V63.7373H765.505V65.3721H763.51V68H761.796V65.3721H756.074ZM767.377 67.7363C767.148 67.5137 767.034 67.2295 767.034 66.8838C767.034 66.5381 767.16 66.2451 767.412 66.0049C767.664 65.7646 767.986 65.6445 768.379 65.6445C768.771 65.6445 769.108 65.7939 769.39 66.0928C769.671 66.3916 769.812 66.8105 769.812 67.3496C769.812 68.4277 769.536 69.2598 768.985 69.8457C768.435 70.4316 767.822 70.7715 767.148 70.8652V69.9248C767.582 69.8311 767.934 69.5938 768.203 69.2129C768.473 68.832 768.619 68.4219 768.643 67.9824C768.561 68.041 768.388 68.0703 768.124 68.0703C767.86 68.0703 767.611 67.959 767.377 67.7363ZM775.929 68.2725C774.622 68.2725 773.591 67.9561 772.835 67.3232C772.079 66.6904 771.701 65.8906 771.701 64.9238C771.701 64.2383 771.909 63.6406 772.325 63.1309C772.741 62.6211 773.271 62.2578 773.916 62.041C773.365 61.8359 772.908 61.4844 772.545 60.9863C772.188 60.4883 772.009 59.9287 772.009 59.3076C772.009 58.3584 772.381 57.582 773.125 56.9785C773.875 56.3691 774.812 56.0645 775.938 56.0645C777.062 56.0645 777.997 56.3691 778.741 56.9785C779.485 57.5879 779.857 58.3643 779.857 59.3076C779.857 59.917 779.676 60.4736 779.312 60.9775C778.949 61.4814 778.495 61.8359 777.95 62.041C778.601 62.2461 779.131 62.6064 779.541 63.1221C779.951 63.6377 780.159 64.2383 780.165 64.9238C780.171 65.8965 779.793 66.6992 779.031 67.332C778.27 67.9648 777.235 68.2783 775.929 68.2725ZM775.929 66.7432C776.685 66.749 777.282 66.5645 777.722 66.1895C778.161 65.8145 778.381 65.3398 778.381 64.7656C778.381 64.1914 778.161 63.7168 777.722 63.3418C777.282 62.9668 776.685 62.7793 775.929 62.7793C775.173 62.7793 774.578 62.9697 774.145 63.3506C773.711 63.7314 773.491 64.2031 773.485 64.7656C773.491 65.3281 773.711 65.7998 774.145 66.1807C774.578 66.5557 775.173 66.7432 775.929 66.7432ZM774.382 60.7666C774.792 61.1123 775.308 61.2852 775.929 61.2852C776.55 61.2852 777.068 61.1123 777.484 60.7666C777.895 60.4209 778.1 59.9727 778.1 59.4219C778.1 58.8711 777.9 58.4199 777.502 58.0684C777.104 57.7051 776.579 57.5234 775.929 57.5234C775.278 57.5234 774.754 57.7051 774.355 58.0684C773.957 58.4316 773.764 58.8828 773.775 59.4219C773.775 59.9668 773.978 60.415 774.382 60.7666ZM789.71 56.3369V57.9541H784.727L783.865 61.3027C784.381 60.7285 785.195 60.4414 786.309 60.4414C787.422 60.4414 788.351 60.79 789.095 61.4873C789.833 62.1846 790.202 63.1133 790.202 64.2734C790.208 65.4336 789.812 66.3916 789.016 67.1475C788.219 67.9092 787.202 68.29 785.966 68.29C784.729 68.2842 783.713 67.9473 782.916 67.2793C782.119 66.6113 781.68 65.7969 781.598 64.8359L783.285 64.3262C783.332 65.0469 783.599 65.6299 784.085 66.0752C784.571 66.5205 785.175 66.7432 785.896 66.7432C786.616 66.7432 787.217 66.5264 787.697 66.0928C788.178 65.6592 788.418 65.0732 788.418 64.335C788.418 63.6025 788.178 63.0254 787.697 62.6035C787.217 62.1816 786.578 61.9707 785.781 61.9707C784.984 61.9707 784.313 62.252 783.769 62.8145L782.046 62.1289L783.558 56.3369H789.71ZM792.769 66.4004C792.071 65.3633 791.723 63.9512 791.723 62.1641C791.723 60.377 792.071 58.9678 792.769 57.9365C793.595 56.6885 794.787 56.0645 796.346 56.0645C797.904 56.0645 799.1 56.6885 799.932 57.9365C800.629 58.9678 800.978 60.377 800.978 62.1641C800.978 63.9512 800.629 65.3633 799.932 66.4004C799.105 67.6484 797.913 68.2725 796.354 68.2725C794.796 68.2725 793.601 67.6484 792.769 66.4004ZM794.5 58.3848C793.814 59.1055 793.472 60.3652 793.472 62.1641C793.472 63.9629 793.814 65.2256 794.5 65.9521C794.98 66.4561 795.599 66.708 796.354 66.708C797.11 66.708 797.729 66.4561 798.209 65.9521C798.889 65.2314 799.229 63.9688 799.229 62.1641C799.229 60.3594 798.889 59.0996 798.209 58.3848C797.729 57.8809 797.11 57.6289 796.354 57.6289C795.599 57.6289 794.98 57.8809 794.5 58.3848ZM802.779 67.7275C802.539 67.4873 802.419 67.1943 802.419 66.8486C802.419 66.5029 802.539 66.207 802.779 65.9609C803.014 65.7148 803.307 65.5918 803.658 65.5918C804.01 65.5918 804.309 65.7148 804.555 65.9609C804.801 66.207 804.924 66.5029 804.924 66.8486C804.924 67.1943 804.801 67.4873 804.555 67.7275C804.309 67.9678 804.013 68.0879 803.667 68.0879C803.321 68.0879 803.025 67.9678 802.779 67.7275ZM807.235 57.9541V56.3369H815.154V57.9189L811.823 60.9951C812.772 61.001 813.61 61.3145 814.337 61.9355C815.063 62.5566 815.427 63.4062 815.427 64.4844C815.427 65.5625 815.049 66.4648 814.293 67.1914C813.543 67.9238 812.518 68.29 811.217 68.29C809.916 68.29 808.879 67.9326 808.105 67.2178C807.332 66.5029 806.916 65.6357 806.857 64.6162L808.58 64.2207C808.615 64.9766 808.876 65.5859 809.362 66.0488C809.849 66.5117 810.464 66.7432 811.208 66.7432C811.952 66.7432 812.544 66.5352 812.983 66.1191C813.423 65.6973 813.643 65.1582 813.643 64.502C813.643 63.8457 813.408 63.333 812.939 62.9639C812.471 62.5947 811.914 62.4072 811.27 62.4014C810.918 62.4072 810.575 62.4688 810.241 62.5859L809.371 61.127L812.816 57.9541H807.235ZM824.884 56.3369V57.9541H819.9L819.039 61.3027C819.555 60.7285 820.369 60.4414 821.482 60.4414C822.596 60.4414 823.524 60.79 824.269 61.4873C825.007 62.1846 825.376 63.1133 825.376 64.2734C825.382 65.4336 824.986 66.3916 824.189 67.1475C823.393 67.9092 822.376 68.29 821.14 68.29C819.903 68.2842 818.887 67.9473 818.09 67.2793C817.293 66.6113 816.854 65.7969 816.771 64.8359L818.459 64.3262C818.506 65.0469 818.772 65.6299 819.259 66.0752C819.745 66.5205 820.349 66.7432 821.069 66.7432C821.79 66.7432 822.391 66.5264 822.871 66.0928C823.352 65.6592 823.592 65.0732 823.592 64.335C823.592 63.6025 823.352 63.0254 822.871 62.6035C822.391 62.1816 821.752 61.9707 820.955 61.9707C820.158 61.9707 819.487 62.252 818.942 62.8145L817.22 62.1289L818.731 56.3369H824.884Z" fill="white"/>
<defs>
<linearGradient id="paint0_linear_1_3" x1="376" y1="2" x2="376" y2="343" gradientUnits="userSpaceOnUse">
<stop stop-color="#E8E7FF"/>
<stop offset="1" stop-color="white" stop-opacity="0"/>
</linearGradient>
</defs>
</svg>