<svg width="1000" height="789" viewBox="0 0 1000 789" fill="none" xmlns="http://www.w3.org/2000/svg">
<line x1="60" y1="727.5" x2="810" y2="727.5" stroke="#E2E4E7"/>
<line x1="60.5" y1="387" x2="60.5" y2="728" stroke="#E2E4E7"/>
<line x1="185.5" y1="387" x2="185.5" y2="728" stroke="#E2E4E7"/>
<line x1="310.5" y1="387" x2="310.5" y2="728" stroke="#E2E4E7"/>
<line x1="435.5" y1="387" x2="435.5" y2="728" stroke="#E2E4E7"/>
<line x1="560.5" y1="387" x2="560.5" y2="728" stroke="#E2E4E7"/>
<line x1="685.5" y1="387" x2="685.5" y2="728" stroke="#E2E4E7"/>
<line x1="810.5" y1="387" x2="810.5" y2="728" stroke="#E2E4E7"/>
<path d="M65 691.94H67.6555V722.336H65V691.94Z" fill="#E6E8EB"/>
<path d="M71.1961 699.626H73.8516V722.336H71.1961V699.626Z" fill="#E6E8EB"/>
<path d="M77.3923 717.713H80.0478V722.336H77.3923V717.713Z" fill="#E6E8EB"/>
<path d="M83.5886 702.143H86.2441V722.336H83.5886V702.143Z" fill="#E6E8EB"/>
<path d="M89.7847 716.75H92.4402V722.336H89.7847V716.75Z" fill="#E6E8EB"/>
<path d="M95.9808 705.272H98.6363V722.336H95.9808V705.272Z" fill="#E6E8EB"/>
<path d="M102.177 699.22H104.833V722.336H102.177V699.22Z" fill="#E6E8EB"/>
<path d="M108.373 712.529H111.029V722.336H108.373V712.529Z" fill="#E6E8EB"/>
<path d="M114.569 705.053H117.225V722.336H114.569V705.053Z" fill="#E6E8EB"/>
<path d="M120.766 704.515H123.421V722.336H120.766V704.515Z" fill="#E6E8EB"/>
<path d="M126.962 699.907H129.617V722.336H126.962V699.907Z" fill="#E6E8EB"/>
<path d="M133.158 704.926H135.813V722.336H133.158V704.926Z" fill="#E6E8EB"/>
<path d="M139.354 705.819H142.01V722.336H139.354V705.819Z" fill="#E6E8EB"/>
<path d="M145.55 709.223H148.206V722.336H145.55V709.223Z" fill="#E6E8EB"/>
<path d="M151.746 709.033H154.402V722.336H151.746V709.033Z" fill="#E6E8EB"/>
<path d="M157.943 711.643H160.598V722.336H157.943V711.643Z" fill="#E6E8EB"/>
<path d="M164.139 710.145H166.794V722.336H164.139V710.145Z" fill="#E6E8EB"/>
<path d="M170.335 717.374H172.99V722.336H170.335V717.374Z" fill="#E6E8EB"/>
<path d="M176.531 714.635H179.187V722.336H176.531V714.635Z" fill="#E6E8EB"/>
<path d="M182.727 713.596H185.383V722.336H182.727V713.596Z" fill="#E6E8EB"/>
<path d="M188.923 691H191.579V722.336H188.923V691Z" fill="#E6E8EB"/>
<path d="M195.12 703.179H197.775V722.336H195.12V703.179Z" fill="#E6E8EB"/>
<path d="M201.316 707.988H203.971V722.336H201.316V707.988Z" fill="#E6E8EB"/>
<path d="M207.512 713.799H210.167V722.336H207.512V713.799Z" fill="#E6E8EB"/>
<path d="M213.708 700.465H216.364V722.336H213.708V700.465Z" fill="#E6E8EB"/>
<path d="M219.904 707.279H222.56V722.336H219.904V707.279Z" fill="#E6E8EB"/>
<path d="M226.1 695.61H228.756V722.336H226.1V695.61Z" fill="#E6E8EB"/>
<path d="M232.297 703.296H234.952V722.336H232.297V703.296Z" fill="#E6E8EB"/>
<path d="M238.493 717.77H241.148V722.336H238.493V717.77Z" fill="#E6E8EB"/>
<path d="M244.689 716.706H247.344V722.336H244.689V716.706Z" fill="#E6E8EB"/>
<path d="M250.885 713.365H253.541V722.336H250.885V713.365Z" fill="#E6E8EB"/>
<path d="M257.081 721.646H259.737V722.336H257.081V721.646Z" fill="#E6E8EB"/>
<path d="M263.278 706.598H265.933V722.336H263.278V706.598Z" fill="#E6E8EB"/>
<path d="M269.474 698.752H272.129V722.336H269.474V698.752Z" fill="#E6E8EB"/>
<path d="M275.67 698.299H278.325V722.336H275.67V698.299Z" fill="#E6E8EB"/>
<path d="M281.866 721.997H284.522V722.336H281.866V721.997Z" fill="#E6E8EB"/>
<path d="M288.062 699.325H290.718V722.336H288.062V699.325Z" fill="#E6E8EB"/>
<path d="M294.258 697.419H296.914V722.336H294.258V697.419Z" fill="#E6E8EB"/>
<path d="M300.455 692.377H303.11V722.336H300.455V692.377Z" fill="#E6E8EB"/>
<path d="M306.651 711.874H309.306V722.336H306.651V711.874Z" fill="#E6E8EB"/>
<path d="M312.847 708.704H315.502V722.336H312.847V708.704Z" fill="#E6E8EB"/>
<path d="M319.043 692.697H321.699V722.336H319.043V692.697Z" fill="#E6E8EB"/>
<path d="M325.239 701.877H327.895V722.336H325.239V701.877Z" fill="#E6E8EB"/>
<path d="M331.435 695.351H334.091V722.336H331.435V695.351Z" fill="#E6E8EB"/>
<path d="M337.632 704.024H340.287V722.336H337.632V704.024Z" fill="#E6E8EB"/>
<path d="M343.828 714.366H346.483V722.336H343.828V714.366Z" fill="#E6E8EB"/>
<path d="M350.024 705.367H352.679V722.336H350.024V705.367Z" fill="#E6E8EB"/>
<path d="M356.22 703.46H358.876V722.336H356.22V703.46Z" fill="#E6E8EB"/>
<path d="M362.416 709.607H365.072V722.336H362.416V709.607Z" fill="#E6E8EB"/>
<path d="M368.612 703.818H371.268V722.336H368.612V703.818Z" fill="#E6E8EB"/>
<path d="M374.809 710.62H377.464V722.336H374.809V710.62Z" fill="#E6E8EB"/>
<path d="M381.005 702.241H383.66V722.336H381.005V702.241Z" fill="#E6E8EB"/>
<path d="M387.201 696.301H389.856V722.336H387.201V696.301Z" fill="#E6E8EB"/>
<path d="M393.397 691.405H396.053V722.336H393.397V691.405Z" fill="#E6E8EB"/>
<path d="M399.593 720.424H402.249V722.336H399.593V720.424Z" fill="#E6E8EB"/>
<path d="M405.789 702.529H408.445V722.336H405.789V702.529Z" fill="#E6E8EB"/>
<path d="M411.986 714.733H414.641V722.336H411.986V714.733Z" fill="#E6E8EB"/>
<path d="M418.182 692.292H420.837V722.336H418.182V692.292Z" fill="#E6E8EB"/>
<path d="M424.378 700.595H427.033V722.336H424.378V700.595Z" fill="#E6E8EB"/>
<path d="M430.574 706.111H433.23V722.336H430.574V706.111Z" fill="#E6E8EB"/>
<path d="M436.77 707.653H439.426V722.336H436.77V707.653Z" fill="#E6E8EB"/>
<path d="M442.966 713.907H445.622V722.336H442.966V713.907Z" fill="#E6E8EB"/>
<path d="M449.163 712.209H451.818V722.336H449.163V712.209Z" fill="#E6E8EB"/>
<path d="M455.359 692.298H458.014V722.336H455.359V692.298Z" fill="#E6E8EB"/>
<path d="M461.555 721.05H464.211V722.336H461.555V721.05Z" fill="#E6E8EB"/>
<path d="M467.751 706.133H470.407V722.336H467.751V706.133Z" fill="#E6E8EB"/>
<path d="M473.947 719.401H476.603V722.336H473.947V719.401Z" fill="#E6E8EB"/>
<path d="M480.144 721.56H482.799V722.336H480.144V721.56Z" fill="#E6E8EB"/>
<path d="M486.34 714.182H488.995V722.336H486.34V714.182Z" fill="#E6E8EB"/>
<path d="M492.536 707.561H495.191V722.336H492.536V707.561Z" fill="#E6E8EB"/>
<path d="M498.732 711.462H501.388V722.336H498.732V711.462Z" fill="#E6E8EB"/>
<path d="M504.928 716.146H507.584V722.336H504.928V716.146Z" fill="#E6E8EB"/>
<path d="M511.124 712.073H513.78V722.336H511.124V712.073Z" fill="#E6E8EB"/>
<path d="M517.321 696.399H519.976V722.336H517.321V696.399Z" fill="#E6E8EB"/>
<path d="M523.517 714.489H526.172V722.336H523.517V714.489Z" fill="#E6E8EB"/>
<path d="M529.713 722.023H532.368V722.336H529.713V722.023Z" fill="#E6E8EB"/>
<path d="M535.909 694.113H538.565V722.336H535.909V694.113Z" fill="#E6E8EB"/>
<path d="M542.105 707.52H544.761V722.336H542.105V707.52Z" fill="#E6E8EB"/>
<path d="M548.301 691.26H550.957V722.336H548.301V691.26Z" fill="#E6E8EB"/>
<path d="M554.498 719.616H557.153V722.336H554.498V719.616Z" fill="#E6E8EB"/>
<path d="M560.694 717.127H563.349V722.336H560.694V717.127Z" fill="#E6E8EB"/>
<path d="M566.89 713.647H569.546V722.336H566.89V713.647Z" fill="#E6E8EB"/>
<path d="M573.086 713.676H575.742V722.336H573.086V713.676Z" fill="#E6E8EB"/>
<path d="M579.282 702.966H581.938V722.336H579.282V702.966Z" fill="#E6E8EB"/>
<path d="M585.479 699.303H588.134V722.336H585.479V699.303Z" fill="#E6E8EB"/>
<path d="M591.675 708.011H594.33V722.336H591.675V708.011Z" fill="#E6E8EB"/>
<path d="M597.871 707.609H600.526V722.336H597.871V707.609Z" fill="#E6E8EB"/>
<path d="M604.067 718.609H606.723V722.336H604.067V718.609Z" fill="#E6E8EB"/>
<path d="M610.263 704.166H612.919V722.336H610.263V704.166Z" fill="#E6E8EB"/>
<path d="M616.459 700.211H619.115V722.336H616.459V700.211Z" fill="#E6E8EB"/>
<path d="M622.656 692.32H625.311V722.336H622.656V692.32Z" fill="#E6E8EB"/>
<path d="M628.852 692.65H631.507V722.336H628.852V692.65Z" fill="#E6E8EB"/>
<path d="M635.048 696.133H637.703V722.336H635.048V696.133Z" fill="#E6E8EB"/>
<path d="M641.244 715.262H643.9V722.336H641.244V715.262Z" fill="#E6E8EB"/>
<path d="M647.44 696.728H650.096V722.336H647.44V696.728Z" fill="#E6E8EB"/>
<path d="M653.636 704.141H656.292V722.336H653.636V704.141Z" fill="#E6E8EB"/>
<path d="M659.833 692.406H662.488V722.336H659.833V692.406Z" fill="#E6E8EB"/>
<path d="M666.029 712.194H668.684V722.336H666.029V712.194Z" fill="#E6E8EB"/>
<path d="M672.225 708.565H674.88V722.336H672.225V708.565Z" fill="#E6E8EB"/>
<path d="M678.421 721.44H681.077V722.336H678.421V721.44Z" fill="#E6E8EB"/>
<path d="M684.617 718.698H687.273V722.336H684.617V718.698Z" fill="#E6E8EB"/>
<path d="M690.813 721.829H693.469V722.336H690.813V721.829Z" fill="#E6E8EB"/>
<path d="M697.01 703.505H699.665V722.336H697.01V703.505Z" fill="#E6E8EB"/>
<path d="M703.206 694.651H705.861V722.336H703.206V694.651Z" fill="#E6E8EB"/>
<path d="M709.402 704.565H712.057V722.336H709.402V704.565Z" fill="#E6E8EB"/>
<path d="M715.598 706.446H718.254V722.336H715.598V706.446Z" fill="#E6E8EB"/>
<path d="M721.794 708.378H724.45V722.336H721.794V708.378Z" fill="#E6E8EB"/>
<path d="M727.99 711.079H730.646V722.336H727.99V711.079Z" fill="#E6E8EB"/>
<path d="M734.187 692.998H736.842V722.336H734.187V692.998Z" fill="#E6E8EB"/>
<path d="M740.383 712.751H743.038V722.336H740.383V712.751Z" fill="#E6E8EB"/>
<path d="M746.579 708.989H749.234V722.336H746.579V708.989Z" fill="#E6E8EB"/>
<path d="M752.775 717.95H755.431V722.336H752.775V717.95Z" fill="#E6E8EB"/>
<path d="M758.971 703.679H761.627V722.336H758.971V703.679Z" fill="#E6E8EB"/>
<path d="M765.167 691.256H767.823V722.336H765.167V691.256Z" fill="#E6E8EB"/>
<path d="M771.364 707.779H774.019V722.336H771.364V707.779Z" fill="#E6E8EB"/>
<path d="M777.56 694.423H780.215V722.336H777.56V694.423Z" fill="#E6E8EB"/>
<path d="M783.756 694.027H786.411V722.336H783.756V694.027Z" fill="#E6E8EB"/>
<path d="M789.952 708.97H792.608V722.336H789.952V708.97Z" fill="#E6E8EB"/>
<path d="M796.148 700.642H798.804V722.336H796.148V700.642Z" fill="#E6E8EB"/>
<path d="M802.344 692.039H805V722.336H802.344V692.039Z" fill="#E6E8EB"/>
<path d="M68.8496 643.75L60 660.911V729H810V536.911L802.257 540.232L792.854 537.464L781.792 539.125L773.496 536.357L754.69 538.018L745.841 533.589L736.991 539.679L727.589 549.643L718.739 541.893H708.783L699.934 538.018L691.084 549.643L681.128 555.179L672.279 513.107L663.429 536.911L653.473 538.018L645.73 530.821L635.774 580.089L626.925 586.179L616.969 581.75L608.673 571.786L599.27 576.768L590.42 538.571L581.018 515.875L562.766 548.536L553.916 529.161L544.513 526.393L535.664 503.696L526.261 510.893L517.412 495.946L508.009 513.661L499.159 485.982L490.31 482.661L480.907 503.696L472.058 499.821L462.655 473.804L453.252 531.929L444.403 517.536L435 520.304L425.597 497.054L416.195 505.911L407.898 528.607L398.496 521.964L389.646 447.232L379.69 437.268L370.288 450L361.438 453.321L352.589 442.25L343.186 450L334.336 431.179L325.487 444.464L315.531 489.304L307.235 423.982L297.832 400.179L288.429 433.946L279.58 404.054L270.177 433.946L260.774 419L253.031 442.25L242.522 454.982L234.226 435.607L224.27 388L214.867 456.643L206.018 502.036L197.168 478.786L178.916 554.625L169.513 556.839L160.664 549.089L152.367 557.393L142.412 549.089L124.159 456.643L114.757 591.161L105.907 649.286L97.0575 654.821L88.208 652.054L77.6991 654.821L68.8496 643.75Z" fill="url(#paint0_linear_1_2)"/>
<path d="M60 661L68.8496 643.834L77.6991 654.909L88.208 652.14L97.0575 654.909L105.907 649.371L114.757 591.227L124.159 456.665L142.412 549.142L152.367 557.448L160.664 549.142L169.513 556.895L178.916 554.68L197.168 478.815L206.018 502.073L214.867 456.665L224.27 388L234.226 435.623L242.522 455.004L253.031 442.268L260.774 419.01L270.177 433.961L279.58 404.059L288.429 433.961L297.832 400.183L307.235 423.994L315.531 489.337L325.487 444.483L334.336 431.193L343.186 450.02L352.589 442.268L361.438 453.343L370.288 450.02L379.69 437.284L389.646 447.252L398.496 522.008L407.898 528.653L416.195 505.949L425.597 497.089L435 520.347L444.403 517.578L453.252 531.976L462.655 473.832L472.058 499.858L480.907 503.734L490.31 482.692L499.159 486.014L508.009 513.702L517.412 495.982L526.261 510.933L535.664 503.734L544.513 526.438L553.916 529.207L562.766 548.588L581.018 515.917L590.42 538.621L599.27 576.83L608.673 571.846L616.969 581.813L626.925 586.243L635.774 580.152L645.73 530.868L653.473 538.067L663.429 536.959L672.279 513.148L681.128 555.233L691.084 549.696L699.934 538.067L708.783 541.943H718.739L727.589 549.696L736.991 539.728L745.841 533.637L754.69 538.067L773.496 536.406L781.792 539.174L792.854 537.513L802.257 540.282L810 536.959" stroke="#4B40EE" stroke-width="2" stroke-linejoin="round"/>
<line x1="810" y1="447.5" x2="60" y2="447.5" stroke="#999999" stroke-dasharray="5 5"/>
<line x1="390.5" y1="386" x2="390.5" y2="727" stroke="#999999" stroke-dasharray="5 5"/>
<rect x="790" y="520" width="98" height="33" rx="5" fill="#4B40EE"/>
<path d="M806.971 539.273C806.971 540.018 807.223 540.615 807.727 541.066C808.23 541.518 808.828 541.743 809.52 541.743C810.211 541.743 810.797 541.521 811.277 541.075C811.758 540.63 812.001 540.032 812.007 539.282C812.007 538.532 811.764 537.935 811.277 537.489C810.785 537.05 810.188 536.83 809.484 536.83C808.781 536.83 808.187 537.053 807.7 537.498C807.214 537.943 806.971 538.535 806.971 539.273ZM809.792 535.318C810.981 535.318 811.945 535.67 812.684 536.373C813.422 537.076 813.791 538.043 813.791 539.273C813.791 540.498 813.372 541.471 812.534 542.191C811.696 542.912 810.665 543.272 809.44 543.272C808.216 543.272 807.155 542.818 806.259 541.91C805.362 541.002 804.914 539.654 804.914 537.867C804.914 535.758 805.479 534.097 806.61 532.884C807.741 531.671 809.18 531.064 810.926 531.064C811.998 531.064 812.839 531.281 813.448 531.715L812.912 533.156C812.338 532.822 811.641 532.652 810.82 532.646C809.631 532.646 808.667 533.039 807.929 533.824C807.19 534.609 806.786 535.611 806.716 536.83C806.979 536.396 807.378 536.036 807.911 535.749C808.444 535.462 809.071 535.318 809.792 535.318ZM815.487 532.954V531.337H823.406V532.919L820.075 535.995C821.024 536.001 821.862 536.314 822.589 536.936C823.315 537.557 823.679 538.406 823.679 539.484C823.679 540.562 823.301 541.465 822.545 542.191C821.795 542.924 820.77 543.29 819.469 543.29C818.168 543.29 817.131 542.933 816.357 542.218C815.584 541.503 815.168 540.636 815.109 539.616L816.832 539.221C816.867 539.977 817.128 540.586 817.614 541.049C818.101 541.512 818.716 541.743 819.46 541.743C820.204 541.743 820.796 541.535 821.235 541.119C821.675 540.697 821.895 540.158 821.895 539.502C821.895 538.846 821.66 538.333 821.191 537.964C820.723 537.595 820.166 537.407 819.521 537.401C819.17 537.407 818.827 537.469 818.493 537.586L817.623 536.127L821.068 532.954H815.487ZM825.814 542.736C825.586 542.514 825.472 542.229 825.472 541.884C825.472 541.538 825.598 541.245 825.85 541.005C826.102 540.765 826.424 540.645 826.816 540.645C827.209 540.645 827.546 540.794 827.827 541.093C828.108 541.392 828.249 541.811 828.249 542.35C828.249 543.428 827.974 544.26 827.423 544.846C826.872 545.432 826.26 545.771 825.586 545.865V544.925C826.02 544.831 826.371 544.594 826.641 544.213C826.91 543.832 827.057 543.422 827.08 542.982C826.998 543.041 826.825 543.07 826.562 543.07C826.298 543.07 826.049 542.959 825.814 542.736ZM833.241 543H831.519V534.773H828.688V533.534C829.479 533.522 830.147 533.314 830.692 532.91C831.231 532.506 831.565 531.981 831.694 531.337H833.241V543ZM843.278 531.337V533.024C842.979 533.265 842.687 533.522 842.399 533.798C842.112 534.073 841.731 534.516 841.257 535.125C840.782 535.734 840.363 536.385 840 537.076C839.637 537.762 839.297 538.629 838.98 539.678C838.664 540.727 838.453 541.834 838.348 543H836.528C836.669 541.166 837.05 539.543 837.671 538.131C838.292 536.719 838.928 535.611 839.578 534.809C840.223 534.006 840.729 533.455 841.099 533.156L841.336 532.954H834.762V531.337H843.278ZM850.345 536.848C850.843 536.402 851.092 535.813 851.092 535.081C851.092 534.349 850.84 533.754 850.336 533.297C849.832 532.84 849.24 532.611 848.561 532.611C847.881 532.611 847.295 532.837 846.803 533.288C846.311 533.739 846.062 534.337 846.056 535.081C846.056 535.825 846.302 536.42 846.794 536.865C847.28 537.311 847.869 537.533 848.561 537.533C849.252 537.533 849.847 537.305 850.345 536.848ZM847.277 541.682C848.607 541.682 849.606 541.301 850.274 540.539C850.942 539.777 851.294 538.778 851.329 537.542C851.101 537.964 850.726 538.318 850.204 538.605C849.683 538.893 849.05 539.036 848.306 539.036C847.228 539.036 846.284 538.688 845.476 537.99C844.673 537.287 844.271 536.335 844.271 535.134C844.271 533.933 844.693 532.954 845.537 532.198C846.381 531.442 847.409 531.064 848.622 531.064C849.835 531.064 850.887 531.521 851.777 532.436C852.668 533.35 853.11 534.68 853.104 536.426C853.099 538.611 852.609 540.299 851.637 541.488C850.664 542.678 849.211 543.272 847.277 543.272C846.82 543.267 846.328 543.199 845.801 543.07C845.273 542.941 844.866 542.78 844.579 542.587L845.15 541.128C845.76 541.497 846.469 541.682 847.277 541.682ZM854.906 542.728C854.666 542.487 854.546 542.194 854.546 541.849C854.546 541.503 854.666 541.207 854.906 540.961C855.141 540.715 855.434 540.592 855.785 540.592C856.137 540.592 856.436 540.715 856.682 540.961C856.928 541.207 857.051 541.503 857.051 541.849C857.051 542.194 856.928 542.487 856.682 542.728C856.436 542.968 856.14 543.088 855.794 543.088C855.448 543.088 855.152 542.968 854.906 542.728ZM866.552 531.337V533.024C866.253 533.265 865.96 533.522 865.673 533.798C865.386 534.073 865.005 534.516 864.53 535.125C864.056 535.734 863.637 536.385 863.273 537.076C862.91 537.762 862.57 538.629 862.254 539.678C861.938 540.727 861.727 541.834 861.621 543H859.802C859.942 541.166 860.323 539.543 860.944 538.131C861.565 536.719 862.201 535.611 862.852 534.809C863.496 534.006 864.003 533.455 864.372 533.156L864.609 532.954H858.035V531.337H866.552ZM871.737 543H870.015V534.773H867.185V533.534C867.976 533.522 868.644 533.314 869.188 532.91C869.728 532.506 870.062 531.981 870.19 531.337H871.737V543Z" fill="white"/>
<rect x="790" y="431" width="109" height="33" rx="5" fill="#1A243A"/>
<path d="M806.971 450.273C806.971 451.018 807.223 451.615 807.727 452.066C808.23 452.518 808.828 452.743 809.52 452.743C810.211 452.743 810.797 452.521 811.277 452.075C811.758 451.63 812.001 451.032 812.007 450.282C812.007 449.532 811.764 448.935 811.277 448.489C810.785 448.05 810.188 447.83 809.484 447.83C808.781 447.83 808.187 448.053 807.7 448.498C807.214 448.943 806.971 449.535 806.971 450.273ZM809.792 446.318C810.981 446.318 811.945 446.67 812.684 447.373C813.422 448.076 813.791 449.043 813.791 450.273C813.791 451.498 813.372 452.471 812.534 453.191C811.696 453.912 810.665 454.272 809.44 454.272C808.216 454.272 807.155 453.818 806.259 452.91C805.362 452.002 804.914 450.654 804.914 448.867C804.914 446.758 805.479 445.097 806.61 443.884C807.741 442.671 809.18 442.064 810.926 442.064C811.998 442.064 812.839 442.281 813.448 442.715L812.912 444.156C812.338 443.822 811.641 443.652 810.82 443.646C809.631 443.646 808.667 444.039 807.929 444.824C807.19 445.609 806.786 446.611 806.716 447.83C806.979 447.396 807.378 447.036 807.911 446.749C808.444 446.462 809.071 446.318 809.792 446.318ZM820.796 449.737V444.024L816.691 449.737H820.796ZM815.074 451.372V449.342L820.075 442.337H822.51V449.737H824.505V451.372H822.51V454H820.796V451.372H815.074ZM826.377 453.736C826.148 453.514 826.034 453.229 826.034 452.884C826.034 452.538 826.16 452.245 826.412 452.005C826.664 451.765 826.986 451.645 827.379 451.645C827.771 451.645 828.108 451.794 828.39 452.093C828.671 452.392 828.812 452.811 828.812 453.35C828.812 454.428 828.536 455.26 827.985 455.846C827.435 456.432 826.822 456.771 826.148 456.865V455.925C826.582 455.831 826.934 455.594 827.203 455.213C827.473 454.832 827.619 454.422 827.643 453.982C827.561 454.041 827.388 454.07 827.124 454.07C826.86 454.07 826.611 453.959 826.377 453.736ZM834.929 454.272C833.622 454.272 832.591 453.956 831.835 453.323C831.079 452.69 830.701 451.891 830.701 450.924C830.701 450.238 830.909 449.641 831.325 449.131C831.741 448.621 832.271 448.258 832.916 448.041C832.365 447.836 831.908 447.484 831.545 446.986C831.188 446.488 831.009 445.929 831.009 445.308C831.009 444.358 831.381 443.582 832.125 442.979C832.875 442.369 833.812 442.064 834.938 442.064C836.062 442.064 836.997 442.369 837.741 442.979C838.485 443.588 838.857 444.364 838.857 445.308C838.857 445.917 838.676 446.474 838.312 446.978C837.949 447.481 837.495 447.836 836.95 448.041C837.601 448.246 838.131 448.606 838.541 449.122C838.951 449.638 839.159 450.238 839.165 450.924C839.171 451.896 838.793 452.699 838.031 453.332C837.27 453.965 836.235 454.278 834.929 454.272ZM834.929 452.743C835.685 452.749 836.282 452.564 836.722 452.189C837.161 451.814 837.381 451.34 837.381 450.766C837.381 450.191 837.161 449.717 836.722 449.342C836.282 448.967 835.685 448.779 834.929 448.779C834.173 448.779 833.578 448.97 833.145 449.351C832.711 449.731 832.491 450.203 832.485 450.766C832.491 451.328 832.711 451.8 833.145 452.181C833.578 452.556 834.173 452.743 834.929 452.743ZM833.382 446.767C833.792 447.112 834.308 447.285 834.929 447.285C835.55 447.285 836.068 447.112 836.484 446.767C836.895 446.421 837.1 445.973 837.1 445.422C837.1 444.871 836.9 444.42 836.502 444.068C836.104 443.705 835.579 443.523 834.929 443.523C834.278 443.523 833.754 443.705 833.355 444.068C832.957 444.432 832.764 444.883 832.775 445.422C832.775 445.967 832.978 446.415 833.382 446.767ZM848.71 442.337V443.954H843.727L842.865 447.303C843.381 446.729 844.195 446.441 845.309 446.441C846.422 446.441 847.351 446.79 848.095 447.487C848.833 448.185 849.202 449.113 849.202 450.273C849.208 451.434 848.812 452.392 848.016 453.147C847.219 453.909 846.202 454.29 844.966 454.29C843.729 454.284 842.713 453.947 841.916 453.279C841.119 452.611 840.68 451.797 840.598 450.836L842.285 450.326C842.332 451.047 842.599 451.63 843.085 452.075C843.571 452.521 844.175 452.743 844.896 452.743C845.616 452.743 846.217 452.526 846.697 452.093C847.178 451.659 847.418 451.073 847.418 450.335C847.418 449.603 847.178 449.025 846.697 448.604C846.217 448.182 845.578 447.971 844.781 447.971C843.984 447.971 843.313 448.252 842.769 448.814L841.046 448.129L842.558 442.337H848.71ZM851.769 452.4C851.071 451.363 850.723 449.951 850.723 448.164C850.723 446.377 851.071 444.968 851.769 443.937C852.595 442.688 853.787 442.064 855.346 442.064C856.904 442.064 858.1 442.688 858.932 443.937C859.629 444.968 859.978 446.377 859.978 448.164C859.978 449.951 859.629 451.363 858.932 452.4C858.105 453.648 856.913 454.272 855.354 454.272C853.796 454.272 852.601 453.648 851.769 452.4ZM853.5 444.385C852.814 445.105 852.472 446.365 852.472 448.164C852.472 449.963 852.814 451.226 853.5 451.952C853.98 452.456 854.599 452.708 855.354 452.708C856.11 452.708 856.729 452.456 857.209 451.952C857.889 451.231 858.229 449.969 858.229 448.164C858.229 446.359 857.889 445.1 857.209 444.385C856.729 443.881 856.11 443.629 855.354 443.629C854.599 443.629 853.98 443.881 853.5 444.385ZM861.779 453.728C861.539 453.487 861.419 453.194 861.419 452.849C861.419 452.503 861.539 452.207 861.779 451.961C862.014 451.715 862.307 451.592 862.658 451.592C863.01 451.592 863.309 451.715 863.555 451.961C863.801 452.207 863.924 452.503 863.924 452.849C863.924 453.194 863.801 453.487 863.555 453.728C863.309 453.968 863.013 454.088 862.667 454.088C862.321 454.088 862.025 453.968 861.779 453.728ZM866.235 443.954V442.337H874.154V443.919L870.823 446.995C871.772 447.001 872.61 447.314 873.337 447.936C874.063 448.557 874.427 449.406 874.427 450.484C874.427 451.562 874.049 452.465 873.293 453.191C872.543 453.924 871.518 454.29 870.217 454.29C868.916 454.29 867.879 453.933 867.105 453.218C866.332 452.503 865.916 451.636 865.857 450.616L867.58 450.221C867.615 450.977 867.876 451.586 868.362 452.049C868.849 452.512 869.464 452.743 870.208 452.743C870.952 452.743 871.544 452.535 871.983 452.119C872.423 451.697 872.643 451.158 872.643 450.502C872.643 449.846 872.408 449.333 871.939 448.964C871.471 448.595 870.914 448.407 870.27 448.401C869.918 448.407 869.575 448.469 869.241 448.586L868.371 447.127L871.816 443.954H866.235ZM883.884 442.337V443.954H878.9L878.039 447.303C878.555 446.729 879.369 446.441 880.482 446.441C881.596 446.441 882.524 446.79 883.269 447.487C884.007 448.185 884.376 449.113 884.376 450.273C884.382 451.434 883.986 452.392 883.189 453.147C882.393 453.909 881.376 454.29 880.14 454.29C878.903 454.284 877.887 453.947 877.09 453.279C876.293 452.611 875.854 451.797 875.771 450.836L877.459 450.326C877.506 451.047 877.772 451.63 878.259 452.075C878.745 452.521 879.349 452.743 880.069 452.743C880.79 452.743 881.391 452.526 881.871 452.093C882.352 451.659 882.592 451.073 882.592 450.335C882.592 449.603 882.352 449.025 881.871 448.604C881.391 448.182 880.752 447.971 879.955 447.971C879.158 447.971 878.487 448.252 877.942 448.814L876.22 448.129L877.731 442.337H883.884Z" fill="white"/>
<path d="M779.111 348H777.441V339.343H779.059V340.494C779.322 340.037 779.694 339.688 780.175 339.448C780.655 339.208 781.168 339.088 781.713 339.088C782.258 339.088 782.765 339.226 783.233 339.501C783.702 339.776 784.051 340.187 784.279 340.731C784.877 339.642 785.844 339.094 787.18 339.088C788.006 339.088 788.709 339.369 789.289 339.932C789.869 340.494 790.162 341.312 790.168 342.384V348H788.489V342.568C788.489 341.971 788.337 341.49 788.032 341.127C787.722 340.764 787.268 340.582 786.67 340.582C786.072 340.582 785.589 340.79 785.22 341.206C784.851 341.622 784.663 342.141 784.657 342.762V348H782.97V342.568C782.964 341.971 782.809 341.49 782.504 341.127C782.199 340.764 781.745 340.582 781.142 340.582C780.538 340.582 780.049 340.787 779.674 341.197C779.299 341.607 779.111 342.135 779.111 342.779V348ZM795.468 346.849C796.224 346.849 796.83 346.644 797.287 346.233C797.744 345.823 797.97 345.176 797.964 344.291V343.896L795.318 344.291C794.932 344.35 794.627 344.487 794.404 344.704C794.182 344.921 794.067 345.205 794.062 345.557C794.062 345.908 794.19 346.213 794.448 346.471C794.706 346.723 795.046 346.849 795.468 346.849ZM795.116 348.272C794.337 348.272 793.678 348.018 793.139 347.508C792.6 346.998 792.33 346.38 792.33 345.653C792.33 344.927 792.57 344.338 793.051 343.887C793.531 343.436 794.167 343.157 794.958 343.052L797.305 342.709C797.75 342.65 797.973 342.413 797.973 341.997C797.973 341.581 797.814 341.229 797.498 340.942C797.182 340.655 796.725 340.512 796.127 340.512C795.529 340.512 795.063 340.67 794.729 340.986C794.396 341.303 794.196 341.728 794.132 342.261L792.515 341.883C792.597 341.062 792.975 340.389 793.648 339.861C794.322 339.334 795.125 339.07 796.057 339.07C797.287 339.07 798.195 339.369 798.781 339.967C799.367 340.564 799.66 341.323 799.66 342.243V346.576C799.66 347.092 799.695 347.566 799.766 348H798.113C798.055 347.643 798.025 347.253 798.025 346.831C797.785 347.218 797.434 347.555 796.971 347.842C796.508 348.129 795.89 348.272 795.116 348.272ZM801.031 348L804.257 343.588L801.146 339.343H803.193L805.32 342.384L807.403 339.343H809.407L806.331 343.588C806.513 343.816 807.049 344.549 807.939 345.785C808.83 347.021 809.354 347.76 809.513 348H807.482L805.25 344.818L803.053 348H801.031Z" fill="#6F7177"/>
<path d="M731.001 348H729.278V339.773H726.448V338.534C727.239 338.522 727.907 338.314 728.452 337.91C728.991 337.506 729.325 336.981 729.454 336.337H731.001V348ZM735.949 351.621H734.095L736.248 347.042L732.521 339.343H734.473L737.171 345.319L739.764 339.343H741.583L735.949 351.621Z" fill="#6F7177"/>
<path d="M668.971 344.273C668.971 345.018 669.223 345.615 669.727 346.066C670.23 346.518 670.828 346.743 671.52 346.743C672.211 346.743 672.797 346.521 673.277 346.075C673.758 345.63 674.001 345.032 674.007 344.282C674.007 343.532 673.764 342.935 673.277 342.489C672.785 342.05 672.188 341.83 671.484 341.83C670.781 341.83 670.187 342.053 669.7 342.498C669.214 342.943 668.971 343.535 668.971 344.273ZM671.792 340.318C672.981 340.318 673.945 340.67 674.684 341.373C675.422 342.076 675.791 343.043 675.791 344.273C675.791 345.498 675.372 346.471 674.534 347.191C673.696 347.912 672.665 348.272 671.44 348.272C670.216 348.272 669.155 347.818 668.259 346.91C667.362 346.002 666.914 344.654 666.914 342.867C666.914 340.758 667.479 339.097 668.61 337.884C669.741 336.671 671.18 336.064 672.926 336.064C673.998 336.064 674.839 336.281 675.448 336.715L674.912 338.156C674.338 337.822 673.641 337.652 672.82 337.646C671.631 337.646 670.667 338.039 669.929 338.824C669.19 339.609 668.786 340.611 668.716 341.83C668.979 341.396 669.378 341.036 669.911 340.749C670.444 340.462 671.071 340.318 671.792 340.318ZM679.553 348H677.883V339.343H679.5V340.494C679.764 340.037 680.136 339.688 680.616 339.448C681.097 339.208 681.609 339.088 682.154 339.088C682.699 339.088 683.206 339.226 683.675 339.501C684.144 339.776 684.492 340.187 684.721 340.731C685.318 339.642 686.285 339.094 687.621 339.088C688.447 339.088 689.15 339.369 689.73 339.932C690.311 340.494 690.604 341.312 690.609 342.384V348H688.931V342.568C688.931 341.971 688.778 341.49 688.474 341.127C688.163 340.764 687.709 340.582 687.111 340.582C686.514 340.582 686.03 340.79 685.661 341.206C685.292 341.622 685.104 342.141 685.099 342.762V348H683.411V342.568C683.405 341.971 683.25 341.49 682.945 341.127C682.641 340.764 682.187 340.582 681.583 340.582C680.979 340.582 680.49 340.787 680.115 341.197C679.74 341.607 679.553 342.135 679.553 342.779V348Z" fill="#6F7177"/>
<path d="M615.001 348H613.278V339.773H610.448V338.534C611.239 338.522 611.907 338.314 612.452 337.91C612.991 337.506 613.325 336.981 613.454 336.337H615.001V348ZM619.457 348H617.787V339.343H619.404V340.494C619.668 340.037 620.04 339.688 620.521 339.448C621.001 339.208 621.514 339.088 622.059 339.088C622.604 339.088 623.11 339.226 623.579 339.501C624.048 339.776 624.396 340.187 624.625 340.731C625.223 339.642 626.189 339.094 627.525 339.088C628.352 339.088 629.055 339.369 629.635 339.932C630.215 340.494 630.508 341.312 630.514 342.384V348H628.835V342.568C628.835 341.971 628.683 341.49 628.378 341.127C628.067 340.764 627.613 340.582 627.016 340.582C626.418 340.582 625.935 340.79 625.565 341.206C625.196 341.622 625.009 342.141 625.003 342.762V348H623.315V342.568C623.31 341.971 623.154 341.49 622.85 341.127C622.545 340.764 622.091 340.582 621.487 340.582C620.884 340.582 620.395 340.787 620.02 341.197C619.645 341.607 619.457 342.135 619.457 342.779V348Z" fill="#6F7177"/>
<rect x="541" y="325" width="49" height="33" rx="5" fill="#4B40EE"/>
<path d="M560.001 348H558.278V339.773H555.448V338.534C556.239 338.522 556.907 338.314 557.452 337.91C557.991 337.506 558.325 336.981 558.454 336.337H560.001V348ZM567.665 339.343H569.414L571.664 345.855L573.571 339.343H575.347L572.543 348H570.794L568.491 341.408L566.241 348H564.457L561.618 339.343H563.473L565.415 345.855L567.665 339.343Z" fill="white"/>
<path d="M501.046 337.954V336.337H508.965V337.919L505.634 340.995C506.583 341.001 507.421 341.314 508.147 341.936C508.874 342.557 509.237 343.406 509.237 344.484C509.237 345.562 508.859 346.465 508.104 347.191C507.354 347.924 506.328 348.29 505.027 348.29C503.727 348.29 502.689 347.933 501.916 347.218C501.143 346.503 500.727 345.636 500.668 344.616L502.391 344.221C502.426 344.977 502.687 345.586 503.173 346.049C503.659 346.512 504.274 346.743 505.019 346.743C505.763 346.743 506.354 346.535 506.794 346.119C507.233 345.697 507.453 345.158 507.453 344.502C507.453 343.846 507.219 343.333 506.75 342.964C506.281 342.595 505.725 342.407 505.08 342.401C504.729 342.407 504.386 342.469 504.052 342.586L503.182 341.127L506.627 337.954H501.046ZM517.455 346.831V346.682C517.227 347.127 516.881 347.496 516.418 347.789C515.955 348.082 515.407 348.231 514.774 348.237C513.538 348.231 512.545 347.795 511.795 346.928C511.045 346.061 510.67 344.982 510.67 343.693C510.67 342.404 511.054 341.314 511.821 340.424C512.589 339.545 513.573 339.105 514.774 339.105C515.483 339.105 516.061 339.246 516.506 339.527C516.951 339.809 517.256 340.154 517.42 340.564V334.966H519.09V346.4C519.09 346.986 519.122 347.52 519.187 348H517.543C517.484 347.666 517.455 347.276 517.455 346.831ZM516.77 341.426C516.324 340.875 515.718 340.6 514.95 340.6C514.183 340.6 513.564 340.881 513.096 341.443C512.627 342.006 512.396 342.741 512.401 343.649C512.407 344.558 512.633 345.299 513.078 345.873C513.523 346.447 514.133 346.734 514.906 346.734C515.68 346.734 516.295 346.441 516.752 345.855C517.209 345.27 517.438 344.522 517.438 343.614C517.438 342.706 517.215 341.977 516.77 341.426Z" fill="#6F7177"/>
<path d="M454.001 348H452.278V339.773H449.448V338.534C450.239 338.522 450.907 338.314 451.452 337.91C451.991 337.506 452.325 336.981 452.454 336.337H454.001V348ZM462.852 346.831V346.682C462.623 347.127 462.277 347.496 461.814 347.789C461.352 348.082 460.804 348.231 460.171 348.237C458.935 348.231 457.941 347.795 457.191 346.928C456.441 346.061 456.066 344.982 456.066 343.693C456.066 342.404 456.45 341.314 457.218 340.424C457.985 339.545 458.97 339.105 460.171 339.105C460.88 339.105 461.457 339.246 461.902 339.527C462.348 339.809 462.652 340.154 462.816 340.564V334.966H464.486V346.4C464.486 346.986 464.519 347.52 464.583 348H462.939C462.881 347.666 462.852 347.276 462.852 346.831ZM462.166 341.426C461.721 340.875 461.114 340.6 460.347 340.6C459.579 340.6 458.961 340.881 458.492 341.443C458.023 342.006 457.792 342.741 457.798 343.649C457.804 344.558 458.029 345.299 458.475 345.873C458.92 346.447 459.529 346.734 460.303 346.734C461.076 346.734 461.691 346.441 462.148 345.855C462.605 345.27 462.834 344.522 462.834 343.614C462.834 342.706 462.611 341.977 462.166 341.426Z" fill="#6F7177"/>
<path d="M249.146 348.272C247.405 348.272 245.914 347.672 244.672 346.471C243.43 345.27 242.809 343.649 242.809 341.61C242.809 340.245 243.119 339.047 243.74 338.016C244.361 336.984 245.149 336.217 246.104 335.713C247.054 335.215 248.067 334.966 249.146 334.966C250.587 334.966 251.803 335.329 252.793 336.056C253.783 336.782 254.439 337.77 254.762 339.018L253.127 339.598C252.887 338.637 252.424 337.896 251.738 337.374C251.053 336.853 250.188 336.592 249.146 336.592C247.897 336.592 246.828 337.031 245.938 337.91C245.047 338.789 244.604 340.022 244.61 341.61C244.61 343.192 245.056 344.429 245.946 345.319C246.837 346.21 247.903 346.652 249.146 346.646C250.188 346.646 251.059 346.368 251.756 345.812C252.453 345.255 252.939 344.514 253.215 343.588L254.779 344.168C254.434 345.404 253.766 346.397 252.775 347.147C251.785 347.897 250.575 348.272 249.146 348.272ZM260.281 339.07C261.564 339.07 262.622 339.504 263.454 340.371C264.292 341.238 264.711 342.337 264.711 343.667C264.711 344.997 264.295 346.096 263.463 346.963C262.631 347.83 261.57 348.264 260.281 348.264C258.992 348.264 257.932 347.83 257.1 346.963C256.268 346.096 255.852 345 255.852 343.676C255.852 342.352 256.268 341.25 257.1 340.371C257.932 339.504 258.992 339.07 260.281 339.07ZM260.281 346.761C261.037 346.761 261.676 346.488 262.197 345.943C262.719 345.404 262.979 344.648 262.979 343.676C262.979 342.703 262.719 341.944 262.197 341.399C261.676 340.854 261.037 340.582 260.281 340.582C259.525 340.582 258.887 340.854 258.365 341.399C257.844 341.944 257.583 342.7 257.583 343.667C257.583 344.634 257.844 345.393 258.365 345.943C258.887 346.494 259.525 346.767 260.281 346.761ZM268.543 348H266.873V339.343H268.49V340.494C268.754 340.037 269.126 339.688 269.606 339.448C270.087 339.208 270.6 339.088 271.145 339.088C271.689 339.088 272.196 339.226 272.665 339.501C273.134 339.776 273.482 340.187 273.711 340.731C274.309 339.642 275.275 339.094 276.611 339.088C277.438 339.088 278.141 339.369 278.721 339.932C279.301 340.494 279.594 341.312 279.6 342.384V348H277.921V342.568C277.921 341.971 277.769 341.49 277.464 341.127C277.153 340.764 276.699 340.582 276.102 340.582C275.504 340.582 275.021 340.79 274.651 341.206C274.282 341.622 274.095 342.141 274.089 342.762V348H272.401V342.568C272.396 341.971 272.24 341.49 271.936 341.127C271.631 340.764 271.177 340.582 270.573 340.582C269.97 340.582 269.48 340.787 269.105 341.197C268.73 341.607 268.543 342.135 268.543 342.779V348ZM288.389 345.873C288.857 345.299 289.092 344.566 289.092 343.676C289.092 342.785 288.86 342.059 288.397 341.496C287.935 340.934 287.316 340.646 286.543 340.635C285.77 340.635 285.146 340.922 284.671 341.496C284.196 342.07 283.959 342.797 283.959 343.676C283.959 344.566 284.196 345.296 284.671 345.864C285.146 346.433 285.767 346.717 286.534 346.717C287.302 346.717 287.92 346.436 288.389 345.873ZM283.977 351.419H282.307V339.343H283.941V340.696C284.193 340.239 284.571 339.867 285.075 339.58C285.579 339.293 286.168 339.146 286.842 339.141C288.09 339.141 289.065 339.568 289.769 340.424C290.472 341.279 290.823 342.36 290.823 343.667C290.823 344.974 290.46 346.061 289.733 346.928C289.007 347.795 288.025 348.231 286.789 348.237C286.15 348.237 285.585 348.105 285.093 347.842C284.601 347.578 284.229 347.241 283.977 346.831V351.419ZM295.569 346.849C296.325 346.849 296.932 346.644 297.389 346.233C297.846 345.823 298.071 345.176 298.065 344.291V343.896L295.42 344.291C295.033 344.35 294.729 344.487 294.506 344.704C294.283 344.921 294.169 345.205 294.163 345.557C294.163 345.908 294.292 346.213 294.55 346.471C294.808 346.723 295.147 346.849 295.569 346.849ZM295.218 348.272C294.438 348.272 293.779 348.018 293.24 347.508C292.701 346.998 292.432 346.38 292.432 345.653C292.432 344.927 292.672 344.338 293.152 343.887C293.633 343.436 294.269 343.157 295.06 343.052L297.406 342.709C297.852 342.65 298.074 342.413 298.074 341.997C298.074 341.581 297.916 341.229 297.6 340.942C297.283 340.655 296.826 340.512 296.229 340.512C295.631 340.512 295.165 340.67 294.831 340.986C294.497 341.303 294.298 341.728 294.233 342.261L292.616 341.883C292.698 341.062 293.076 340.389 293.75 339.861C294.424 339.334 295.227 339.07 296.158 339.07C297.389 339.07 298.297 339.369 298.883 339.967C299.469 340.564 299.762 341.323 299.762 342.243V346.576C299.762 347.092 299.797 347.566 299.867 348H298.215C298.156 347.643 298.127 347.253 298.127 346.831C297.887 347.218 297.535 347.555 297.072 347.842C296.609 348.129 295.991 348.272 295.218 348.272ZM306.468 340.995C304.886 340.995 304.092 341.883 304.086 343.658V348H302.398V339.343H304.051V340.854C304.578 339.753 305.442 339.202 306.644 339.202C306.837 339.202 307.024 339.22 307.206 339.255V341.048C306.954 341.013 306.708 340.995 306.468 340.995ZM312.576 348.272C311.357 348.267 310.326 347.848 309.482 347.016C308.639 346.184 308.217 345.082 308.217 343.711C308.217 342.34 308.624 341.227 309.438 340.371C310.253 339.51 311.226 339.076 312.356 339.07C313.663 339.07 314.683 339.48 315.415 340.301C316.147 341.121 316.514 342.223 316.514 343.605C316.514 343.822 316.502 344.004 316.479 344.15H309.966C309.978 344.918 310.232 345.548 310.73 346.04C311.229 346.532 311.844 346.778 312.576 346.778C313.807 346.778 314.615 346.195 315.002 345.029L316.461 345.53C316.209 346.333 315.74 346.992 315.055 347.508C314.369 348.023 313.543 348.278 312.576 348.272ZM314.105 341.18C313.695 340.77 313.136 340.564 312.427 340.564C311.718 340.564 311.146 340.784 310.713 341.224C310.279 341.663 310.048 342.182 310.019 342.779H314.747C314.729 342.123 314.516 341.59 314.105 341.18Z" fill="#6F7177"/>
<path d="M220 352C225.523 352 230 347.523 230 342C230 336.477 225.523 332 220 332C214.477 332 210 336.477 210 342C210 347.523 214.477 352 220 352Z" stroke="#6F7177" stroke-width="2" stroke-linecap="round" stroke-linejoin="round"/>
<path d="M220 338V346" stroke="#6F7177" stroke-width="2" stroke-linecap="round" stroke-linejoin="round"/>
<path d="M216 342H224" stroke="#6F7177" stroke-width="2" stroke-linecap="round" stroke-linejoin="round"/>
<path d="M97.3838 348H95.6172V335.238H103.378V336.873H97.3838V340.978H102.824V342.639H97.3838V348ZM107.693 348.272C106.709 348.272 105.924 347.944 105.338 347.288C104.752 346.632 104.459 345.8 104.459 344.792V339.343H106.146V344.546C106.146 345.196 106.305 345.732 106.621 346.154C106.938 346.576 107.433 346.784 108.106 346.778C108.78 346.778 109.29 346.576 109.636 346.172C109.981 345.768 110.157 345.231 110.163 344.563V339.343H111.851V346.4C111.851 346.963 111.883 347.496 111.947 348H110.321C110.274 347.736 110.251 347.388 110.251 346.954C110.022 347.388 109.674 347.716 109.205 347.938C108.736 348.161 108.232 348.272 107.693 348.272ZM116.43 348H114.742V334.966H116.43V348ZM121 348H119.312V334.966H121V348ZM125.21 346.374C125.556 346.679 125.992 346.831 126.52 346.831C127.047 346.831 127.439 346.72 127.697 346.497C127.961 346.274 128.093 346.002 128.093 345.68C128.093 345.105 127.721 344.733 126.977 344.563L125.5 344.238C124.832 344.098 124.305 343.811 123.918 343.377C123.531 342.943 123.338 342.387 123.338 341.707C123.338 341.027 123.643 340.418 124.252 339.879C124.861 339.34 125.585 339.07 126.423 339.07C127.853 339.07 128.86 339.612 129.446 340.696C129.563 340.925 129.651 341.156 129.71 341.391L128.216 341.953C128.169 341.648 128.058 341.382 127.882 341.153C127.548 340.726 127.062 340.512 126.423 340.512C126.001 340.512 125.655 340.626 125.386 340.854C125.116 341.083 124.981 341.353 124.981 341.663C124.981 342.214 125.31 342.562 125.966 342.709L127.372 343.017C128.14 343.187 128.731 343.494 129.147 343.939C129.563 344.385 129.771 344.944 129.771 345.618C129.771 346.286 129.49 346.896 128.928 347.446C128.365 347.997 127.571 348.272 126.546 348.272C125.515 348.272 124.697 348.006 124.094 347.473C123.496 346.934 123.156 346.359 123.074 345.75L124.604 345.214C124.662 345.683 124.864 346.069 125.21 346.374ZM137.137 341.18C136.768 340.816 136.231 340.635 135.528 340.635C134.825 340.635 134.219 340.898 133.709 341.426C133.199 341.953 132.944 342.694 132.944 343.649C132.944 344.604 133.199 345.352 133.709 345.891C134.219 346.43 134.84 346.699 135.572 346.699C136.311 346.699 136.867 346.523 137.242 346.172C137.617 345.809 137.869 345.393 137.998 344.924L139.492 345.574C139.252 346.295 138.798 346.925 138.13 347.464C137.462 348.003 136.615 348.272 135.59 348.272C134.33 348.272 133.284 347.833 132.452 346.954C131.626 346.075 131.213 344.971 131.213 343.641C131.213 342.311 131.626 341.218 132.452 340.362C133.278 339.501 134.269 339.07 135.423 339.07C136.577 339.07 137.482 339.34 138.139 339.879C138.795 340.418 139.223 341.068 139.422 341.83L137.893 342.472C137.758 341.974 137.506 341.543 137.137 341.18ZM145.548 340.995C143.966 340.995 143.172 341.883 143.166 343.658V348H141.479V339.343H143.131V340.854C143.658 339.753 144.522 339.202 145.724 339.202C145.917 339.202 146.104 339.22 146.286 339.255V341.048C146.034 341.013 145.788 340.995 145.548 340.995ZM151.656 348.272C150.438 348.267 149.406 347.848 148.562 347.016C147.719 346.184 147.297 345.082 147.297 343.711C147.297 342.34 147.704 341.227 148.519 340.371C149.333 339.51 150.306 339.076 151.437 339.07C152.743 339.07 153.763 339.48 154.495 340.301C155.228 341.121 155.594 342.223 155.594 343.605C155.594 343.822 155.582 344.004 155.559 344.15H149.046C149.058 344.918 149.312 345.548 149.811 346.04C150.309 346.532 150.924 346.778 151.656 346.778C152.887 346.778 153.695 346.195 154.082 345.029L155.541 345.53C155.289 346.333 154.82 346.992 154.135 347.508C153.449 348.023 152.623 348.278 151.656 348.272ZM153.186 341.18C152.775 340.77 152.216 340.564 151.507 340.564C150.798 340.564 150.227 340.784 149.793 341.224C149.359 341.663 149.128 342.182 149.099 342.779H153.827C153.81 342.123 153.596 341.59 153.186 341.18ZM161.412 348.272C160.193 348.267 159.162 347.848 158.318 347.016C157.475 346.184 157.053 345.082 157.053 343.711C157.053 342.34 157.46 341.227 158.274 340.371C159.089 339.51 160.062 339.076 161.192 339.07C162.499 339.07 163.519 339.48 164.251 340.301C164.983 341.121 165.35 342.223 165.35 343.605C165.35 343.822 165.338 344.004 165.314 344.15H158.802C158.813 344.918 159.068 345.548 159.566 346.04C160.064 346.532 160.68 346.778 161.412 346.778C162.643 346.778 163.451 346.195 163.838 345.029L165.297 345.53C165.045 346.333 164.576 346.992 163.891 347.508C163.205 348.023 162.379 348.278 161.412 348.272ZM162.941 341.18C162.531 340.77 161.972 340.564 161.263 340.564C160.554 340.564 159.982 340.784 159.549 341.224C159.115 341.663 158.884 342.182 158.854 342.779H163.583C163.565 342.123 163.352 341.59 162.941 341.18ZM169.199 342.999V348H167.512V339.343H169.164V340.582C169.738 339.586 170.626 339.088 171.827 339.088C172.823 339.088 173.588 339.407 174.121 340.046C174.654 340.685 174.924 341.505 174.93 342.507V348H173.233V342.797C173.233 341.344 172.562 340.617 171.221 340.617C170.576 340.617 170.078 340.843 169.727 341.294C169.375 341.745 169.199 342.313 169.199 342.999Z" fill="#6F7177"/>
<path d="M75 333H81V339" stroke="#6F7177" stroke-width="2" stroke-linecap="round" stroke-linejoin="round"/>
<path d="M69 351H63V345" stroke="#6F7177" stroke-width="2" stroke-linecap="round" stroke-linejoin="round"/>
<path d="M81 333L74 340" stroke="#6F7177" stroke-width="2" stroke-linecap="round" stroke-linejoin="round"/>
<path d="M63 351L70 344" stroke="#6F7177" stroke-width="2" stroke-linecap="round" stroke-linejoin="round"/>
<line y1="264.5" x2="1000" y2="264.5" stroke="#EFF1F3"/>
<path d="M454.365 229.189C453.908 228.738 453.302 228.513 452.546 228.513C451.79 228.513 451.178 228.718 450.709 229.128C450.24 229.538 450.006 230.01 450.006 230.543C450.006 231.592 450.551 232.242 451.641 232.494L453.548 232.907C454.608 233.136 455.426 233.566 456 234.199C456.574 234.832 456.861 235.629 456.861 236.59C456.861 237.551 456.454 238.406 455.64 239.156C454.825 239.9 453.732 240.272 452.361 240.272C450.99 240.272 449.903 239.897 449.101 239.147C448.292 238.397 447.82 237.507 447.686 236.476L449.373 235.931C449.443 236.698 449.742 237.346 450.27 237.873C450.797 238.4 451.5 238.664 452.379 238.664C453.252 238.664 453.92 238.474 454.383 238.093C454.84 237.706 455.068 237.246 455.068 236.713C455.068 235.617 454.43 234.932 453.152 234.656L451.342 234.261C450.393 234.056 449.637 233.654 449.074 233.057C448.512 232.459 448.23 231.674 448.23 230.701C448.23 229.734 448.641 228.87 449.461 228.108C450.281 227.347 451.307 226.966 452.537 226.966C453.768 226.966 454.734 227.285 455.438 227.924C456.135 228.562 456.574 229.301 456.756 230.139L455.174 230.692C455.092 230.142 454.822 229.641 454.365 229.189ZM462.592 240.272C461.373 240.267 460.342 239.848 459.498 239.016C458.654 238.184 458.232 237.082 458.232 235.711C458.232 234.34 458.64 233.227 459.454 232.371C460.269 231.51 461.241 231.076 462.372 231.07C463.679 231.07 464.698 231.48 465.431 232.301C466.163 233.121 466.529 234.223 466.529 235.605C466.529 235.822 466.518 236.004 466.494 236.15H459.981C459.993 236.918 460.248 237.548 460.746 238.04C461.244 238.532 461.859 238.778 462.592 238.778C463.822 238.778 464.631 238.195 465.018 237.029L466.477 237.53C466.225 238.333 465.756 238.992 465.07 239.508C464.385 240.023 463.559 240.278 462.592 240.272ZM464.121 233.18C463.711 232.77 463.151 232.564 462.442 232.564C461.733 232.564 461.162 232.784 460.729 233.224C460.295 233.663 460.063 234.182 460.034 234.779H464.763C464.745 234.123 464.531 233.59 464.121 233.18ZM470.959 237.372C470.959 238.163 471.316 238.559 472.031 238.559C472.371 238.559 472.638 238.535 472.831 238.488V239.93C472.544 240.035 472.16 240.088 471.68 240.088C470.936 240.088 470.347 239.871 469.913 239.438C469.479 239.004 469.263 238.4 469.263 237.627V232.872H467.61V231.343H468.076C468.521 231.343 468.855 231.22 469.078 230.974C469.301 230.728 469.412 230.405 469.412 230.007V228.609H470.959V231.343H472.831V232.872H470.959V237.372ZM477.357 237.372C477.357 238.163 477.715 238.559 478.43 238.559C478.77 238.559 479.036 238.535 479.229 238.488V239.93C478.942 240.035 478.559 240.088 478.078 240.088C477.334 240.088 476.745 239.871 476.312 239.438C475.878 239.004 475.661 238.4 475.661 237.627V232.872H474.009V231.343H474.475C474.92 231.343 475.254 231.22 475.477 230.974C475.699 230.728 475.811 230.405 475.811 230.007V228.609H477.357V231.343H479.229V232.872H477.357V237.372ZM481.462 228.917C481.228 228.683 481.11 228.398 481.11 228.064C481.11 227.73 481.228 227.443 481.462 227.203C481.696 226.963 481.98 226.843 482.314 226.843C482.648 226.843 482.936 226.96 483.176 227.194C483.416 227.429 483.536 227.716 483.536 228.056C483.536 228.396 483.416 228.683 483.176 228.917C482.936 229.151 482.648 229.269 482.314 229.269C481.98 229.269 481.696 229.151 481.462 228.917ZM483.158 240H481.488V231.343H483.158V240ZM487.729 234.999V240H486.041V231.343H487.693V232.582C488.268 231.586 489.155 231.088 490.356 231.088C491.353 231.088 492.117 231.407 492.65 232.046C493.184 232.685 493.453 233.505 493.459 234.507V240H491.763V234.797C491.763 233.344 491.092 232.617 489.75 232.617C489.105 232.617 488.607 232.843 488.256 233.294C487.904 233.745 487.729 234.313 487.729 234.999ZM502.23 235.395C502.23 234.574 502.002 233.906 501.545 233.391C501.088 232.875 500.49 232.617 499.752 232.617C499.014 232.617 498.416 232.869 497.959 233.373C497.502 233.877 497.271 234.551 497.265 235.395C497.271 236.238 497.496 236.912 497.941 237.416C498.387 237.914 498.984 238.163 499.734 238.163C500.484 238.163 501.088 237.908 501.545 237.398C502.002 236.889 502.23 236.221 502.23 235.395ZM499.515 242.215C501.278 242.215 502.16 241.277 502.16 239.402V238.163C501.943 238.585 501.604 238.928 501.141 239.191C500.678 239.455 500.136 239.587 499.515 239.587C498.36 239.587 497.408 239.194 496.658 238.409C495.908 237.624 495.533 236.628 495.533 235.421C495.533 234.214 495.905 233.206 496.649 232.397C497.394 231.583 498.387 231.176 499.629 231.176C500.871 231.176 501.721 231.633 502.178 232.547V231.343H503.848V239.35C503.848 240.539 503.537 241.535 502.916 242.338C502.6 242.76 502.148 243.091 501.562 243.331C500.977 243.571 500.294 243.691 499.515 243.691C498.454 243.691 497.549 243.387 496.799 242.777C496.049 242.168 495.621 241.397 495.516 240.466L497.159 240.088C497.212 240.697 497.455 241.204 497.889 241.608C498.322 242.013 498.864 242.215 499.515 242.215ZM507.882 238.374C508.228 238.679 508.664 238.831 509.191 238.831C509.719 238.831 510.111 238.72 510.369 238.497C510.633 238.274 510.765 238.002 510.765 237.68C510.765 237.105 510.393 236.733 509.648 236.563L508.172 236.238C507.504 236.098 506.977 235.811 506.59 235.377C506.203 234.943 506.01 234.387 506.01 233.707C506.01 233.027 506.314 232.418 506.924 231.879C507.533 231.34 508.257 231.07 509.095 231.07C510.524 231.07 511.532 231.612 512.118 232.696C512.235 232.925 512.323 233.156 512.382 233.391L510.888 233.953C510.841 233.648 510.729 233.382 510.554 233.153C510.22 232.726 509.733 232.512 509.095 232.512C508.673 232.512 508.327 232.626 508.058 232.854C507.788 233.083 507.653 233.353 507.653 233.663C507.653 234.214 507.981 234.562 508.638 234.709L510.044 235.017C510.812 235.187 511.403 235.494 511.819 235.939C512.235 236.385 512.443 236.944 512.443 237.618C512.443 238.286 512.162 238.896 511.6 239.446C511.037 239.997 510.243 240.272 509.218 240.272C508.187 240.272 507.369 240.006 506.766 239.473C506.168 238.934 505.828 238.359 505.746 237.75L507.275 237.214C507.334 237.683 507.536 238.069 507.882 238.374Z" fill="#6F7177"/>
<path d="M356.231 229.075L354.052 234.797H358.446L356.231 229.075ZM360.459 240L359.07 236.432H353.419L352.074 240H350.176L355.256 227.238H357.286L362.366 240H360.459ZM365.592 234.999V240H363.904V231.343H365.557V232.582C366.131 231.586 367.019 231.088 368.22 231.088C369.216 231.088 369.98 231.407 370.514 232.046C371.047 232.685 371.316 233.505 371.322 234.507V240H369.626V234.797C369.626 233.344 368.955 232.617 367.613 232.617C366.969 232.617 366.471 232.843 366.119 233.294C365.768 233.745 365.592 234.313 365.592 234.999ZM376.604 238.849C377.36 238.849 377.967 238.644 378.424 238.233C378.881 237.823 379.106 237.176 379.101 236.291V235.896L376.455 236.291C376.068 236.35 375.764 236.487 375.541 236.704C375.318 236.921 375.204 237.205 375.198 237.557C375.198 237.908 375.327 238.213 375.585 238.471C375.843 238.723 376.183 238.849 376.604 238.849ZM376.253 240.272C375.474 240.272 374.814 240.018 374.275 239.508C373.736 238.998 373.467 238.38 373.467 237.653C373.467 236.927 373.707 236.338 374.188 235.887C374.668 235.436 375.304 235.157 376.095 235.052L378.441 234.709C378.887 234.65 379.109 234.413 379.109 233.997C379.109 233.581 378.951 233.229 378.635 232.942C378.318 232.655 377.861 232.512 377.264 232.512C376.666 232.512 376.2 232.67 375.866 232.986C375.532 233.303 375.333 233.728 375.269 234.261L373.651 233.883C373.733 233.062 374.111 232.389 374.785 231.861C375.459 231.334 376.262 231.07 377.193 231.07C378.424 231.07 379.332 231.369 379.918 231.967C380.504 232.564 380.797 233.323 380.797 234.243V238.576C380.797 239.092 380.832 239.566 380.902 240H379.25C379.191 239.643 379.162 239.253 379.162 238.831C378.922 239.218 378.57 239.555 378.107 239.842C377.645 240.129 377.026 240.272 376.253 240.272ZM385.121 240H383.434V226.966H385.121V240ZM390.166 243.621H388.312L390.465 239.042L386.738 231.343H388.689L391.388 237.319L393.98 231.343H395.8L390.166 243.621ZM398.577 238.374C398.923 238.679 399.359 238.831 399.887 238.831C400.414 238.831 400.807 238.72 401.064 238.497C401.328 238.274 401.46 238.002 401.46 237.68C401.46 237.105 401.088 236.733 400.344 236.563L398.867 236.238C398.199 236.098 397.672 235.811 397.285 235.377C396.898 234.943 396.705 234.387 396.705 233.707C396.705 233.027 397.01 232.418 397.619 231.879C398.229 231.34 398.952 231.07 399.79 231.07C401.22 231.07 402.228 231.612 402.813 232.696C402.931 232.925 403.019 233.156 403.077 233.391L401.583 233.953C401.536 233.648 401.425 233.382 401.249 233.153C400.915 232.726 400.429 232.512 399.79 232.512C399.368 232.512 399.022 232.626 398.753 232.854C398.483 233.083 398.349 233.353 398.349 233.663C398.349 234.214 398.677 234.562 399.333 234.709L400.739 235.017C401.507 235.187 402.099 235.494 402.515 235.939C402.931 236.385 403.139 236.944 403.139 237.618C403.139 238.286 402.857 238.896 402.295 239.446C401.732 239.997 400.938 240.272 399.913 240.272C398.882 240.272 398.064 240.006 397.461 239.473C396.863 238.934 396.523 238.359 396.441 237.75L397.971 237.214C398.029 237.683 398.231 238.069 398.577 238.374ZM405.362 228.917C405.128 228.683 405.011 228.398 405.011 228.064C405.011 227.73 405.128 227.443 405.362 227.203C405.597 226.963 405.881 226.843 406.215 226.843C406.549 226.843 406.836 226.96 407.076 227.194C407.316 227.429 407.437 227.716 407.437 228.056C407.437 228.396 407.316 228.683 407.076 228.917C406.836 229.151 406.549 229.269 406.215 229.269C405.881 229.269 405.597 229.151 405.362 228.917ZM407.059 240H405.389V231.343H407.059V240ZM411.269 238.374C411.614 238.679 412.051 238.831 412.578 238.831C413.105 238.831 413.498 238.72 413.756 238.497C414.02 238.274 414.151 238.002 414.151 237.68C414.151 237.105 413.779 236.733 413.035 236.563L411.559 236.238C410.891 236.098 410.363 235.811 409.977 235.377C409.59 234.943 409.396 234.387 409.396 233.707C409.396 233.027 409.701 232.418 410.311 231.879C410.92 231.34 411.644 231.07 412.481 231.07C413.911 231.07 414.919 231.612 415.505 232.696C415.622 232.925 415.71 233.156 415.769 233.391L414.274 233.953C414.228 233.648 414.116 233.382 413.94 233.153C413.606 232.726 413.12 232.512 412.481 232.512C412.06 232.512 411.714 232.626 411.444 232.854C411.175 233.083 411.04 233.353 411.04 233.663C411.04 234.214 411.368 234.562 412.024 234.709L413.431 235.017C414.198 235.187 414.79 235.494 415.206 235.939C415.622 236.385 415.83 236.944 415.83 237.618C415.83 238.286 415.549 238.896 414.986 239.446C414.424 239.997 413.63 240.272 412.604 240.272C411.573 240.272 410.756 240.006 410.152 239.473C409.555 238.934 409.215 238.359 409.133 237.75L410.662 237.214C410.721 237.683 410.923 238.069 411.269 238.374Z" fill="#6F7177"/>
<path d="M252.365 229.189C251.908 228.738 251.302 228.513 250.546 228.513C249.79 228.513 249.178 228.718 248.709 229.128C248.24 229.538 248.006 230.01 248.006 230.543C248.006 231.592 248.551 232.242 249.641 232.494L251.548 232.907C252.608 233.136 253.426 233.566 254 234.199C254.574 234.832 254.861 235.629 254.861 236.59C254.861 237.551 254.454 238.406 253.64 239.156C252.825 239.9 251.732 240.272 250.361 240.272C248.99 240.272 247.903 239.897 247.101 239.147C246.292 238.397 245.82 237.507 245.686 236.476L247.373 235.931C247.443 236.698 247.742 237.346 248.27 237.873C248.797 238.4 249.5 238.664 250.379 238.664C251.252 238.664 251.92 238.474 252.383 238.093C252.84 237.706 253.068 237.246 253.068 236.713C253.068 235.617 252.43 234.932 251.152 234.656L249.342 234.261C248.393 234.056 247.637 233.654 247.074 233.057C246.512 232.459 246.23 231.674 246.23 230.701C246.23 229.734 246.641 228.87 247.461 228.108C248.281 227.347 249.307 226.966 250.537 226.966C251.768 226.966 252.734 227.285 253.438 227.924C254.135 228.562 254.574 229.301 254.756 230.139L253.174 230.692C253.092 230.142 252.822 229.641 252.365 229.189ZM259.203 237.372C259.203 238.163 259.561 238.559 260.275 238.559C260.615 238.559 260.882 238.535 261.075 238.488V239.93C260.788 240.035 260.404 240.088 259.924 240.088C259.18 240.088 258.591 239.871 258.157 239.438C257.724 239.004 257.507 238.4 257.507 237.627V232.872H255.854V231.343H256.32C256.766 231.343 257.1 231.22 257.322 230.974C257.545 230.728 257.656 230.405 257.656 230.007V228.609H259.203V231.343H261.075V232.872H259.203V237.372ZM265.927 238.849C266.683 238.849 267.289 238.644 267.746 238.233C268.203 237.823 268.429 237.176 268.423 236.291V235.896L265.777 236.291C265.391 236.35 265.086 236.487 264.863 236.704C264.641 236.921 264.526 237.205 264.521 237.557C264.521 237.908 264.649 238.213 264.907 238.471C265.165 238.723 265.505 238.849 265.927 238.849ZM265.575 240.272C264.796 240.272 264.137 240.018 263.598 239.508C263.059 238.998 262.789 238.38 262.789 237.653C262.789 236.927 263.029 236.338 263.51 235.887C263.99 235.436 264.626 235.157 265.417 235.052L267.764 234.709C268.209 234.65 268.432 234.413 268.432 233.997C268.432 233.581 268.273 233.229 267.957 232.942C267.641 232.655 267.184 232.512 266.586 232.512C265.988 232.512 265.522 232.67 265.188 232.986C264.854 233.303 264.655 233.728 264.591 234.261L262.974 233.883C263.056 233.062 263.434 232.389 264.107 231.861C264.781 231.334 265.584 231.07 266.516 231.07C267.746 231.07 268.654 231.369 269.24 231.967C269.826 232.564 270.119 233.323 270.119 234.243V238.576C270.119 239.092 270.154 239.566 270.225 240H268.572C268.514 239.643 268.484 239.253 268.484 238.831C268.244 239.218 267.893 239.555 267.43 239.842C266.967 240.129 266.349 240.272 265.575 240.272ZM275.023 237.372C275.023 238.163 275.381 238.559 276.096 238.559C276.436 238.559 276.702 238.535 276.896 238.488V239.93C276.608 240.035 276.225 240.088 275.744 240.088C275 240.088 274.411 239.871 273.978 239.438C273.544 239.004 273.327 238.4 273.327 237.627V232.872H271.675V231.343H272.141C272.586 231.343 272.92 231.22 273.143 230.974C273.365 230.728 273.477 230.405 273.477 230.007V228.609H275.023V231.343H276.896V232.872H275.023V237.372ZM279.128 228.917C278.894 228.683 278.776 228.398 278.776 228.064C278.776 227.73 278.894 227.443 279.128 227.203C279.362 226.963 279.646 226.843 279.98 226.843C280.314 226.843 280.602 226.96 280.842 227.194C281.082 227.429 281.202 227.716 281.202 228.056C281.202 228.396 281.082 228.683 280.842 228.917C280.602 229.151 280.314 229.269 279.98 229.269C279.646 229.269 279.362 229.151 279.128 228.917ZM280.824 240H279.154V231.343H280.824V240ZM285.034 238.374C285.38 238.679 285.816 238.831 286.344 238.831C286.871 238.831 287.264 238.72 287.521 238.497C287.785 238.274 287.917 238.002 287.917 237.68C287.917 237.105 287.545 236.733 286.801 236.563L285.324 236.238C284.656 236.098 284.129 235.811 283.742 235.377C283.355 234.943 283.162 234.387 283.162 233.707C283.162 233.027 283.467 232.418 284.076 231.879C284.686 231.34 285.409 231.07 286.247 231.07C287.677 231.07 288.685 231.612 289.271 232.696C289.388 232.925 289.476 233.156 289.534 233.391L288.04 233.953C287.993 233.648 287.882 233.382 287.706 233.153C287.372 232.726 286.886 232.512 286.247 232.512C285.825 232.512 285.479 232.626 285.21 232.854C284.94 233.083 284.806 233.353 284.806 233.663C284.806 234.214 285.134 234.562 285.79 234.709L287.196 235.017C287.964 235.187 288.556 235.494 288.972 235.939C289.388 236.385 289.596 236.944 289.596 237.618C289.596 238.286 289.314 238.896 288.752 239.446C288.189 239.997 287.396 240.272 286.37 240.272C285.339 240.272 284.521 240.006 283.918 239.473C283.32 238.934 282.98 238.359 282.898 237.75L284.428 237.214C284.486 237.683 284.688 238.069 285.034 238.374ZM294.113 237.372C294.113 238.163 294.471 238.559 295.186 238.559C295.525 238.559 295.792 238.535 295.985 238.488V239.93C295.698 240.035 295.314 240.088 294.834 240.088C294.09 240.088 293.501 239.871 293.067 239.438C292.634 239.004 292.417 238.4 292.417 237.627V232.872H290.765V231.343H291.23C291.676 231.343 292.01 231.22 292.232 230.974C292.455 230.728 292.566 230.405 292.566 230.007V228.609H294.113V231.343H295.985V232.872H294.113V237.372ZM298.218 228.917C297.983 228.683 297.866 228.398 297.866 228.064C297.866 227.73 297.983 227.443 298.218 227.203C298.452 226.963 298.736 226.843 299.07 226.843C299.404 226.843 299.691 226.96 299.932 227.194C300.172 227.429 300.292 227.716 300.292 228.056C300.292 228.396 300.172 228.683 299.932 228.917C299.691 229.151 299.404 229.269 299.07 229.269C298.736 229.269 298.452 229.151 298.218 228.917ZM299.914 240H298.244V231.343H299.914V240ZM308 233.18C307.631 232.816 307.095 232.635 306.392 232.635C305.688 232.635 305.082 232.898 304.572 233.426C304.062 233.953 303.808 234.694 303.808 235.649C303.808 236.604 304.062 237.352 304.572 237.891C305.082 238.43 305.703 238.699 306.436 238.699C307.174 238.699 307.73 238.523 308.105 238.172C308.48 237.809 308.732 237.393 308.861 236.924L310.355 237.574C310.115 238.295 309.661 238.925 308.993 239.464C308.325 240.003 307.479 240.272 306.453 240.272C305.193 240.272 304.147 239.833 303.315 238.954C302.489 238.075 302.076 236.971 302.076 235.641C302.076 234.311 302.489 233.218 303.315 232.362C304.142 231.501 305.132 231.07 306.286 231.07C307.44 231.07 308.346 231.34 309.002 231.879C309.658 232.418 310.086 233.068 310.285 233.83L308.756 234.472C308.621 233.974 308.369 233.543 308 233.18ZM313.669 238.374C314.015 238.679 314.451 238.831 314.979 238.831C315.506 238.831 315.898 238.72 316.156 238.497C316.42 238.274 316.552 238.002 316.552 237.68C316.552 237.105 316.18 236.733 315.436 236.563L313.959 236.238C313.291 236.098 312.764 235.811 312.377 235.377C311.99 234.943 311.797 234.387 311.797 233.707C311.797 233.027 312.102 232.418 312.711 231.879C313.32 231.34 314.044 231.07 314.882 231.07C316.312 231.07 317.319 231.612 317.905 232.696C318.022 232.925 318.11 233.156 318.169 233.391L316.675 233.953C316.628 233.648 316.517 233.382 316.341 233.153C316.007 232.726 315.521 232.512 314.882 232.512C314.46 232.512 314.114 232.626 313.845 232.854C313.575 233.083 313.44 233.353 313.44 233.663C313.44 234.214 313.769 234.562 314.425 234.709L315.831 235.017C316.599 235.187 317.19 235.494 317.606 235.939C318.022 236.385 318.23 236.944 318.23 237.618C318.23 238.286 317.949 238.896 317.387 239.446C316.824 239.997 316.03 240.272 315.005 240.272C313.974 240.272 313.156 240.006 312.553 239.473C311.955 238.934 311.615 238.359 311.533 237.75L313.062 237.214C313.121 237.683 313.323 238.069 313.669 238.374Z" fill="#6F7177"/>
<line x1="158" y1="263.5" x2="225" y2="263.5" stroke="#4B40EE" stroke-width="3"/>
<path d="M175.146 240.272C173.405 240.272 171.914 239.672 170.672 238.471C169.43 237.27 168.809 235.649 168.809 233.61C168.809 232.245 169.119 231.047 169.74 230.016C170.361 228.984 171.149 228.217 172.104 227.713C173.054 227.215 174.067 226.966 175.146 226.966C176.587 226.966 177.803 227.329 178.793 228.056C179.783 228.782 180.439 229.77 180.762 231.018L179.127 231.598C178.887 230.637 178.424 229.896 177.738 229.374C177.053 228.853 176.188 228.592 175.146 228.592C173.897 228.592 172.828 229.031 171.938 229.91C171.047 230.789 170.604 232.022 170.61 233.61C170.61 235.192 171.056 236.429 171.946 237.319C172.837 238.21 173.903 238.652 175.146 238.646C176.188 238.646 177.059 238.368 177.756 237.812C178.453 237.255 178.939 236.514 179.215 235.588L180.779 236.168C180.434 237.404 179.766 238.397 178.775 239.147C177.785 239.897 176.575 240.272 175.146 240.272ZM184.453 240H182.766V226.966H184.453V232.354C185.027 231.51 185.859 231.088 186.949 231.088C188.039 231.088 188.848 231.407 189.375 232.046C189.908 232.685 190.178 233.505 190.184 234.507V240H188.487V234.797C188.487 233.344 187.816 232.617 186.475 232.617C185.854 232.617 185.367 232.828 185.016 233.25C184.664 233.672 184.477 234.223 184.453 234.902V240ZM195.466 238.849C196.222 238.849 196.828 238.644 197.285 238.233C197.742 237.823 197.968 237.176 197.962 236.291V235.896L195.316 236.291C194.93 236.35 194.625 236.487 194.402 236.704C194.18 236.921 194.065 237.205 194.06 237.557C194.06 237.908 194.188 238.213 194.446 238.471C194.704 238.723 195.044 238.849 195.466 238.849ZM195.114 240.272C194.335 240.272 193.676 240.018 193.137 239.508C192.598 238.998 192.328 238.38 192.328 237.653C192.328 236.927 192.568 236.338 193.049 235.887C193.529 235.436 194.165 235.157 194.956 235.052L197.303 234.709C197.748 234.65 197.971 234.413 197.971 233.997C197.971 233.581 197.812 233.229 197.496 232.942C197.18 232.655 196.723 232.512 196.125 232.512C195.527 232.512 195.062 232.67 194.728 232.986C194.394 233.303 194.194 233.728 194.13 234.261L192.513 233.883C192.595 233.062 192.973 232.389 193.646 231.861C194.32 231.334 195.123 231.07 196.055 231.07C197.285 231.07 198.193 231.369 198.779 231.967C199.365 232.564 199.658 233.323 199.658 234.243V238.576C199.658 239.092 199.693 239.566 199.764 240H198.111C198.053 239.643 198.023 239.253 198.023 238.831C197.783 239.218 197.432 239.555 196.969 239.842C196.506 240.129 195.888 240.272 195.114 240.272ZM206.364 232.995C204.782 232.995 203.988 233.883 203.982 235.658V240H202.295V231.343H203.947V232.854C204.475 231.753 205.339 231.202 206.54 231.202C206.733 231.202 206.921 231.22 207.103 231.255V233.048C206.851 233.013 206.604 232.995 206.364 232.995ZM211.629 237.372C211.629 238.163 211.986 238.559 212.701 238.559C213.041 238.559 213.308 238.535 213.501 238.488V239.93C213.214 240.035 212.83 240.088 212.35 240.088C211.605 240.088 211.017 239.871 210.583 239.438C210.149 239.004 209.933 238.4 209.933 237.627V232.872H208.28V231.343H208.746C209.191 231.343 209.525 231.22 209.748 230.974C209.971 230.728 210.082 230.405 210.082 230.007V228.609H211.629V231.343H213.501V232.872H211.629V237.372Z" fill="#1A243A"/>
<path d="M67.3652 229.189C66.9082 228.738 66.3018 228.513 65.5459 228.513C64.79 228.513 64.1777 228.718 63.709 229.128C63.2402 229.538 63.0059 230.01 63.0059 230.543C63.0059 231.592 63.5508 232.242 64.6406 232.494L66.5479 232.907C67.6084 233.136 68.4258 233.566 69 234.199C69.5742 234.832 69.8613 235.629 69.8613 236.59C69.8613 237.551 69.4541 238.406 68.6396 239.156C67.8252 239.9 66.7324 240.272 65.3613 240.272C63.9902 240.272 62.9033 239.897 62.1006 239.147C61.292 238.397 60.8203 237.507 60.6855 236.476L62.373 235.931C62.4434 236.698 62.7422 237.346 63.2695 237.873C63.7969 238.4 64.5 238.664 65.3789 238.664C66.252 238.664 66.9199 238.474 67.3828 238.093C67.8398 237.706 68.0684 237.246 68.0684 236.713C68.0684 235.617 67.4297 234.932 66.1523 234.656L64.3418 234.261C63.3926 234.056 62.6367 233.654 62.0742 233.057C61.5117 232.459 61.2305 231.674 61.2305 230.701C61.2305 229.734 61.6406 228.87 62.4609 228.108C63.2812 227.347 64.3066 226.966 65.5371 226.966C66.7676 226.966 67.7344 227.285 68.4375 227.924C69.1348 228.562 69.5742 229.301 69.7559 230.139L68.1738 230.692C68.0918 230.142 67.8223 229.641 67.3652 229.189ZM74.8008 240.272C73.8164 240.272 73.0312 239.944 72.4453 239.288C71.8594 238.632 71.5664 237.8 71.5664 236.792V231.343H73.2539V236.546C73.2539 237.196 73.4121 237.732 73.7285 238.154C74.0449 238.576 74.54 238.784 75.2139 238.778C75.8877 238.778 76.3975 238.576 76.7432 238.172C77.0889 237.768 77.2646 237.231 77.2705 236.563V231.343H78.958V238.4C78.958 238.963 78.9902 239.496 79.0547 240H77.4287C77.3818 239.736 77.3584 239.388 77.3584 238.954C77.1299 239.388 76.7812 239.716 76.3125 239.938C75.8438 240.161 75.3398 240.272 74.8008 240.272ZM83.5195 240H81.8496V231.343H83.4668V232.494C83.7305 232.037 84.1025 231.688 84.583 231.448C85.0635 231.208 85.5762 231.088 86.1211 231.088C86.666 231.088 87.1729 231.226 87.6416 231.501C88.1104 231.776 88.459 232.187 88.6875 232.731C89.2852 231.642 90.252 231.094 91.5879 231.088C92.4141 231.088 93.1172 231.369 93.6973 231.932C94.2773 232.494 94.5703 233.312 94.5762 234.384V240H92.8975V234.568C92.8975 233.971 92.7451 233.49 92.4404 233.127C92.1299 232.764 91.6758 232.582 91.0781 232.582C90.4805 232.582 89.9971 232.79 89.6279 233.206C89.2588 233.622 89.0713 234.141 89.0654 234.762V240H87.3779V234.568C87.3721 233.971 87.2168 233.49 86.9121 233.127C86.6074 232.764 86.1533 232.582 85.5498 232.582C84.9463 232.582 84.457 232.787 84.082 233.197C83.707 233.607 83.5195 234.135 83.5195 234.779V240ZM98.9531 240H97.2832V231.343H98.9004V232.494C99.1641 232.037 99.5361 231.688 100.017 231.448C100.497 231.208 101.01 231.088 101.555 231.088C102.1 231.088 102.606 231.226 103.075 231.501C103.544 231.776 103.893 232.187 104.121 232.731C104.719 231.642 105.686 231.094 107.021 231.088C107.848 231.088 108.551 231.369 109.131 231.932C109.711 232.494 110.004 233.312 110.01 234.384V240H108.331V234.568C108.331 233.971 108.179 233.49 107.874 233.127C107.563 232.764 107.109 232.582 106.512 232.582C105.914 232.582 105.431 232.79 105.062 233.206C104.692 233.622 104.505 234.141 104.499 234.762V240H102.812V234.568C102.806 233.971 102.65 233.49 102.346 233.127C102.041 232.764 101.587 232.582 100.983 232.582C100.38 232.582 99.8906 232.787 99.5156 233.197C99.1406 233.607 98.9531 234.135 98.9531 234.779V240ZM115.31 238.849C116.065 238.849 116.672 238.644 117.129 238.233C117.586 237.823 117.812 237.176 117.806 236.291V235.896L115.16 236.291C114.773 236.35 114.469 236.487 114.246 236.704C114.023 236.921 113.909 237.205 113.903 237.557C113.903 237.908 114.032 238.213 114.29 238.471C114.548 238.723 114.888 238.849 115.31 238.849ZM114.958 240.272C114.179 240.272 113.52 240.018 112.98 239.508C112.441 238.998 112.172 238.38 112.172 237.653C112.172 236.927 112.412 236.338 112.893 235.887C113.373 235.436 114.009 235.157 114.8 235.052L117.146 234.709C117.592 234.65 117.814 234.413 117.814 233.997C117.814 233.581 117.656 233.229 117.34 232.942C117.023 232.655 116.566 232.512 115.969 232.512C115.371 232.512 114.905 232.67 114.571 232.986C114.237 233.303 114.038 233.728 113.974 234.261L112.356 233.883C112.438 233.062 112.816 232.389 113.49 231.861C114.164 231.334 114.967 231.07 115.898 231.07C117.129 231.07 118.037 231.369 118.623 231.967C119.209 232.564 119.502 233.323 119.502 234.243V238.576C119.502 239.092 119.537 239.566 119.607 240H117.955C117.896 239.643 117.867 239.253 117.867 238.831C117.627 239.218 117.275 239.555 116.812 239.842C116.35 240.129 115.731 240.272 114.958 240.272ZM126.208 232.995C124.626 232.995 123.832 233.883 123.826 235.658V240H122.139V231.343H123.791V232.854C124.318 231.753 125.183 231.202 126.384 231.202C126.577 231.202 126.765 231.22 126.946 231.255V233.048C126.694 233.013 126.448 232.995 126.208 232.995ZM131.191 243.621H129.337L131.49 239.042L127.764 231.343H129.715L132.413 237.319L135.006 231.343H136.825L131.191 243.621Z" fill="#6F7177"/>
<path d="M345.18 101.363C343.32 101.371 341.797 100.82 340.609 99.7109C339.422 98.6016 338.836 97.0547 338.852 95.0703V83.9844H341.699V94.9062C341.699 96.0938 342.008 97.0078 342.625 97.6484C343.242 98.2891 344.098 98.6133 345.191 98.6211C346.285 98.6211 347.141 98.3008 347.758 97.6602C348.367 97.0195 348.668 96.1016 348.66 94.9062V83.9844H351.543V95.0703C351.535 97.0547 350.938 98.6016 349.75 99.7109C348.562 100.82 347.039 101.371 345.18 101.363ZM363.027 86.9844C362.488 86.4375 361.75 86.1641 360.812 86.1641C359.875 86.1641 359.129 86.4062 358.574 86.8906C358.02 87.375 357.746 87.9492 357.754 88.6133C357.754 89.7852 358.418 90.5156 359.746 90.8047L362.195 91.3086C363.664 91.5977 364.797 92.1797 365.594 93.0547C366.391 93.9297 366.789 95.0234 366.789 96.3359C366.789 97.6484 366.254 98.8125 365.184 99.8281C364.105 100.844 362.602 101.355 360.672 101.363C358.742 101.363 357.215 100.84 356.09 99.793C354.973 98.7461 354.344 97.5234 354.203 96.125L356.887 95.3633C356.98 96.3242 357.363 97.1328 358.035 97.7891C358.699 98.4453 359.57 98.7734 360.648 98.7734C361.727 98.7734 362.531 98.5547 363.062 98.1172C363.594 97.6797 363.863 97.1445 363.871 96.5117C363.871 95.8867 363.672 95.3711 363.273 94.9648C362.875 94.5586 362.312 94.2734 361.586 94.1094L359.195 93.6055C357.867 93.332 356.812 92.7812 356.031 91.9531C355.258 91.125 354.871 90.043 354.871 88.707C354.871 87.3711 355.438 86.1875 356.57 85.1562C357.695 84.125 359.109 83.6133 360.812 83.6211C362.516 83.6211 363.844 84.0586 364.797 84.9336C365.75 85.8086 366.352 86.8203 366.602 87.9688L364.012 88.7891C363.902 88.1328 363.574 87.5312 363.027 86.9844ZM375.789 101H369.789V83.9844H375.812C378.211 83.9844 380.191 84.7461 381.754 86.2695C383.316 87.793 384.098 89.875 384.098 92.5156C384.098 95.1562 383.312 97.2344 381.742 98.75C380.172 100.25 378.188 101 375.789 101ZM372.672 98.3633H375.695C377.266 98.3633 378.559 97.8633 379.574 96.8633C380.59 95.8633 381.098 94.4141 381.098 92.5156C381.098 90.6172 380.594 89.1602 379.586 88.1445C378.578 87.1289 377.289 86.6211 375.719 86.6211H372.672V98.3633Z" fill="#BDBEBF"/>
<path d="M60.9932 171.111H64.3594V167.604H65.8359V171.111H69.2197V172.535H65.8359V176.086H64.3594V172.535H60.9932V171.111ZM75.4688 168.844C75.4688 167.801 75.835 166.91 76.5674 166.172C77.2998 165.434 78.2754 165.064 79.4941 165.064C80.7129 165.064 81.6738 165.41 82.377 166.102C83.0801 166.793 83.4346 167.643 83.4404 168.65C83.4404 170.127 82.708 171.325 81.2432 172.245L78.9404 173.722C78.1143 174.249 77.6396 174.797 77.5166 175.365H83.5107V177H75.3457C75.3691 176.016 75.5918 175.151 76.0137 174.407C76.4414 173.663 77.1416 172.98 78.1143 172.359L80.0566 171.094C81.123 170.408 81.6592 169.6 81.665 168.668C81.665 168.094 81.4717 167.607 81.085 167.209C80.7041 166.811 80.1562 166.611 79.4414 166.611C78.7266 166.611 78.1758 166.834 77.7891 167.279C77.4023 167.725 77.2119 168.302 77.2178 169.011C77.2178 169.116 77.2295 169.289 77.2529 169.529L75.4863 169.318C75.4746 169.213 75.4688 169.055 75.4688 168.844ZM85.8398 176.736C85.6113 176.514 85.4971 176.229 85.4971 175.884C85.4971 175.538 85.623 175.245 85.875 175.005C86.127 174.765 86.4492 174.645 86.8418 174.645C87.2344 174.645 87.5713 174.794 87.8525 175.093C88.1338 175.392 88.2744 175.811 88.2744 176.35C88.2744 177.428 87.999 178.26 87.4482 178.846C86.8975 179.432 86.2852 179.771 85.6113 179.865V178.925C86.0449 178.831 86.3965 178.594 86.666 178.213C86.9355 177.832 87.082 177.422 87.1055 176.982C87.0234 177.041 86.8506 177.07 86.5869 177.07C86.3232 177.07 86.0742 176.959 85.8398 176.736ZM93.2666 177H91.5439V168.773H88.7139V167.534C89.5049 167.522 90.1729 167.314 90.7178 166.91C91.2568 166.506 91.5908 165.981 91.7197 165.337H93.2666V177ZM97.6699 173.273C97.6699 174.018 97.9219 174.615 98.4258 175.066C98.9297 175.518 99.5273 175.743 100.219 175.743C100.91 175.743 101.496 175.521 101.977 175.075C102.457 174.63 102.7 174.032 102.706 173.282C102.706 172.532 102.463 171.935 101.977 171.489C101.484 171.05 100.887 170.83 100.184 170.83C99.4805 170.83 98.8857 171.053 98.3994 171.498C97.9131 171.943 97.6699 172.535 97.6699 173.273ZM100.491 169.318C101.681 169.318 102.645 169.67 103.383 170.373C104.121 171.076 104.49 172.043 104.49 173.273C104.49 174.498 104.071 175.471 103.233 176.191C102.396 176.912 101.364 177.272 100.14 177.272C98.915 177.272 97.8545 176.818 96.958 175.91C96.0615 175.002 95.6133 173.654 95.6133 171.867C95.6133 169.758 96.1787 168.097 97.3096 166.884C98.4404 165.671 99.8789 165.064 101.625 165.064C102.697 165.064 103.538 165.281 104.147 165.715L103.611 167.156C103.037 166.822 102.34 166.652 101.52 166.646C100.33 166.646 99.3662 167.039 98.6279 167.824C97.8896 168.609 97.4854 169.611 97.415 170.83C97.6787 170.396 98.0771 170.036 98.6104 169.749C99.1436 169.462 99.7705 169.318 100.491 169.318ZM110.142 177H108.419V168.773H105.589V167.534C106.38 167.522 107.048 167.314 107.593 166.91C108.132 166.506 108.466 165.981 108.595 165.337H110.142V177ZM112.928 176.728C112.688 176.487 112.567 176.194 112.567 175.849C112.567 175.503 112.688 175.207 112.928 174.961C113.162 174.715 113.455 174.592 113.807 174.592C114.158 174.592 114.457 174.715 114.703 174.961C114.949 175.207 115.072 175.503 115.072 175.849C115.072 176.194 114.949 176.487 114.703 176.728C114.457 176.968 114.161 177.088 113.815 177.088C113.47 177.088 113.174 176.968 112.928 176.728ZM121.796 172.737V167.024L117.691 172.737H121.796ZM116.074 174.372V172.342L121.075 165.337H123.51V172.737H125.505V174.372H123.51V177H121.796V174.372H116.074ZM126.533 168.844C126.533 167.801 126.899 166.91 127.632 166.172C128.364 165.434 129.34 165.064 130.559 165.064C131.777 165.064 132.738 165.41 133.441 166.102C134.145 166.793 134.499 167.643 134.505 168.65C134.505 170.127 133.772 171.325 132.308 172.245L130.005 173.722C129.179 174.249 128.704 174.797 128.581 175.365H134.575V177H126.41C126.434 176.016 126.656 175.151 127.078 174.407C127.506 173.663 128.206 172.98 129.179 172.359L131.121 171.094C132.188 170.408 132.724 169.6 132.729 168.668C132.729 168.094 132.536 167.607 132.149 167.209C131.769 166.811 131.221 166.611 130.506 166.611C129.791 166.611 129.24 166.834 128.854 167.279C128.467 167.725 128.276 168.302 128.282 169.011C128.282 169.116 128.294 169.289 128.317 169.529L126.551 169.318C126.539 169.213 126.533 169.055 126.533 168.844ZM144.217 179.883C141.938 177.557 140.798 174.694 140.798 171.296C140.798 167.897 141.938 165.035 144.217 162.709L145.236 163.605C143.244 165.838 142.248 168.401 142.248 171.296C142.248 174.19 143.244 176.751 145.236 178.978L144.217 179.883ZM146.282 166.954V165.337H154.201V166.919L150.87 169.995C151.819 170.001 152.657 170.314 153.384 170.936C154.11 171.557 154.474 172.406 154.474 173.484C154.474 174.562 154.096 175.465 153.34 176.191C152.59 176.924 151.564 177.29 150.264 177.29C148.963 177.29 147.926 176.933 147.152 176.218C146.379 175.503 145.963 174.636 145.904 173.616L147.627 173.221C147.662 173.977 147.923 174.586 148.409 175.049C148.896 175.512 149.511 175.743 150.255 175.743C150.999 175.743 151.591 175.535 152.03 175.119C152.47 174.697 152.689 174.158 152.689 173.502C152.689 172.846 152.455 172.333 151.986 171.964C151.518 171.595 150.961 171.407 150.316 171.401C149.965 171.407 149.622 171.469 149.288 171.586L148.418 170.127L151.863 166.954H146.282ZM156.627 176.728C156.387 176.487 156.267 176.194 156.267 175.849C156.267 175.503 156.387 175.207 156.627 174.961C156.861 174.715 157.154 174.592 157.506 174.592C157.857 174.592 158.156 174.715 158.402 174.961C158.648 175.207 158.771 175.503 158.771 175.849C158.771 176.194 158.648 176.487 158.402 176.728C158.156 176.968 157.86 177.088 157.515 177.088C157.169 177.088 156.873 176.968 156.627 176.728ZM168.782 165.337V166.954H163.799L162.938 170.303C163.453 169.729 164.268 169.441 165.381 169.441C166.494 169.441 167.423 169.79 168.167 170.487C168.905 171.185 169.274 172.113 169.274 173.273C169.28 174.434 168.885 175.392 168.088 176.147C167.291 176.909 166.274 177.29 165.038 177.29C163.802 177.284 162.785 176.947 161.988 176.279C161.191 175.611 160.752 174.797 160.67 173.836L162.357 173.326C162.404 174.047 162.671 174.63 163.157 175.075C163.644 175.521 164.247 175.743 164.968 175.743C165.688 175.743 166.289 175.526 166.77 175.093C167.25 174.659 167.49 174.073 167.49 173.335C167.49 172.603 167.25 172.025 166.77 171.604C166.289 171.182 165.65 170.971 164.854 170.971C164.057 170.971 163.386 171.252 162.841 171.814L161.118 171.129L162.63 165.337H168.782ZM176.253 172.737V167.024L172.148 172.737H176.253ZM170.531 174.372V172.342L175.532 165.337H177.967V172.737H179.962V174.372H177.967V177H176.253V174.372H170.531ZM184.146 177H182.484L190.878 165.337H192.495L184.146 177ZM189.032 176.314C188.464 175.764 188.18 175.096 188.18 174.311C188.18 173.525 188.464 172.857 189.032 172.307C189.601 171.756 190.274 171.478 191.054 171.472C191.833 171.472 192.51 171.747 193.084 172.298C193.658 172.854 193.948 173.525 193.954 174.311C193.954 175.096 193.667 175.764 193.093 176.314C192.524 176.865 191.848 177.141 191.062 177.141C190.277 177.141 189.601 176.865 189.032 176.314ZM190.061 173.291C189.803 173.555 189.674 173.892 189.674 174.302C189.674 174.712 189.806 175.052 190.069 175.321C190.333 175.591 190.664 175.726 191.062 175.726C191.461 175.726 191.789 175.591 192.047 175.321C192.311 175.052 192.442 174.712 192.442 174.302C192.442 173.892 192.311 173.555 192.047 173.291C191.783 173.027 191.452 172.896 191.054 172.896C190.649 172.896 190.318 173.027 190.061 173.291ZM181.052 168.044C181.052 167.259 181.336 166.591 181.904 166.04C182.473 165.489 183.146 165.214 183.926 165.214C184.711 165.214 185.391 165.489 185.965 166.04C186.539 166.591 186.826 167.259 186.826 168.044C186.826 168.829 186.539 169.497 185.965 170.048C185.391 170.604 184.711 170.883 183.926 170.883C183.141 170.883 182.467 170.607 181.904 170.057C181.336 169.506 181.052 168.835 181.052 168.044ZM182.546 168.035C182.546 168.445 182.678 168.785 182.941 169.055C183.199 169.324 183.527 169.459 183.926 169.459C184.324 169.459 184.655 169.324 184.919 169.055C185.183 168.785 185.314 168.445 185.314 168.035C185.314 167.625 185.183 167.288 184.919 167.024C184.655 166.761 184.324 166.629 183.926 166.629C183.527 166.629 183.199 166.761 182.941 167.024C182.684 167.288 182.552 167.625 182.546 168.035ZM195.8 162.709C198.079 165.035 199.219 167.897 199.219 171.296C199.219 174.694 198.079 177.557 195.8 179.883L194.771 178.978C196.764 176.745 197.76 174.182 197.76 171.287C197.76 168.393 196.764 165.832 194.771 163.605L195.8 162.709Z" fill="#67BF6B"/>
<path d="M71.5527 115.508C71.5527 118.402 72.5326 120.726 74.4922 122.48C76.4518 124.235 78.776 125.112 81.4648 125.112C84.1536 125.112 86.4323 124.246 88.3008 122.515C90.1693 120.783 91.1149 118.459 91.1377 115.542C91.1377 112.625 90.1921 110.301 88.3008 108.569C86.3867 106.86 84.0625 106.006 81.3281 106.006C78.5938 106.006 76.2809 106.872 74.3896 108.604C72.4984 110.335 71.5527 112.637 71.5527 115.508ZM82.5244 100.127C87.1501 100.127 90.8984 101.494 93.7695 104.229C96.6406 106.963 98.0762 110.723 98.0762 115.508C98.0762 120.27 96.4469 124.053 93.1885 126.855C89.93 129.658 85.9196 131.06 81.1572 131.06C76.3949 131.06 72.2705 129.294 68.7842 125.762C65.2979 122.23 63.5547 116.989 63.5547 110.039C63.5547 101.836 65.7536 95.376 70.1514 90.6592C74.5492 85.9424 80.1432 83.584 86.9336 83.584C91.1035 83.584 94.3734 84.4271 96.7432 86.1133L94.6582 91.7188C92.4251 90.4199 89.7135 89.7591 86.5234 89.7363C81.8978 89.7363 78.1494 91.263 75.2783 94.3164C72.4072 97.3698 70.835 101.266 70.5615 106.006C71.5869 104.32 73.1364 102.918 75.21 101.802C77.2835 100.685 79.7217 100.127 82.5244 100.127ZM104.673 90.9326V84.6436H135.469V90.7959L122.515 102.759C126.206 102.782 129.465 104.001 132.29 106.416C135.116 108.831 136.528 112.135 136.528 116.328C136.528 120.521 135.059 124.03 132.119 126.855C129.202 129.704 125.215 131.128 120.156 131.128C115.098 131.128 111.064 129.738 108.057 126.958C105.049 124.178 103.431 120.806 103.203 116.841L109.902 115.303C110.039 118.242 111.053 120.612 112.944 122.412C114.836 124.212 117.228 125.112 120.122 125.112C123.016 125.112 125.317 124.303 127.026 122.686C128.735 121.045 129.59 118.949 129.59 116.396C129.59 113.844 128.678 111.851 126.855 110.415C125.033 108.979 122.868 108.25 120.361 108.228C118.994 108.25 117.661 108.49 116.362 108.945L112.979 103.271L126.377 90.9326H104.673ZM144.834 128.975C143.945 128.109 143.501 127.004 143.501 125.659C143.501 124.315 143.991 123.175 144.971 122.241C145.951 121.307 147.204 120.84 148.73 120.84C150.257 120.84 151.567 121.421 152.661 122.583C153.755 123.745 154.302 125.374 154.302 127.471C154.302 131.663 153.231 134.899 151.089 137.178C148.947 139.456 146.566 140.778 143.945 141.143V137.485C145.632 137.121 146.999 136.198 148.047 134.717C149.095 133.236 149.665 131.641 149.756 129.932C149.437 130.16 148.765 130.273 147.739 130.273C146.714 130.273 145.745 129.84 144.834 128.975ZM173.716 130H167.017V98.0078H156.011V93.1885C159.087 93.1429 161.685 92.334 163.804 90.7617C165.9 89.1895 167.199 87.1501 167.7 84.6436H173.716V130ZM212.749 84.6436V91.2061C211.587 92.1403 210.448 93.1429 209.331 94.2139C208.215 95.2848 206.733 97.0052 204.888 99.375C203.042 101.745 201.413 104.274 200 106.963C198.587 109.629 197.266 113.001 196.035 117.08C194.805 121.159 193.984 125.465 193.574 130H186.499C187.046 122.868 188.527 116.556 190.942 111.064C193.358 105.573 195.83 101.266 198.359 98.1445C200.866 95.0228 202.837 92.8809 204.272 91.7188L205.195 90.9326H179.629V84.6436H212.749ZM240.229 106.074C242.166 104.342 243.135 102.052 243.135 99.2041C243.135 96.3558 242.155 94.043 240.195 92.2656C238.236 90.4883 235.934 89.5996 233.291 89.5996C230.648 89.5996 228.369 90.4769 226.455 92.2314C224.541 93.986 223.573 96.3102 223.55 99.2041C223.55 102.098 224.507 104.411 226.421 106.143C228.312 107.874 230.602 108.74 233.291 108.74C235.98 108.74 238.293 107.852 240.229 106.074ZM228.301 124.873C233.473 124.873 237.358 123.392 239.956 120.43C242.554 117.467 243.921 113.582 244.058 108.774C243.169 110.415 241.711 111.794 239.683 112.91C237.655 114.027 235.194 114.585 232.3 114.585C228.107 114.585 224.438 113.229 221.294 110.518C218.172 107.783 216.611 104.08 216.611 99.4092C216.611 94.738 218.252 90.9326 221.533 87.9932C224.814 85.0537 228.813 83.584 233.53 83.584C238.247 83.584 242.337 85.3613 245.801 88.916C249.264 92.4707 250.985 97.6432 250.962 104.434C250.939 112.933 249.036 119.495 245.254 124.121C241.471 128.747 235.82 131.06 228.301 131.06C226.523 131.037 224.609 130.775 222.559 130.273C220.508 129.772 218.924 129.146 217.808 128.394L220.029 122.72C222.399 124.155 225.156 124.873 228.301 124.873ZM257.969 128.94C257.035 128.006 256.567 126.867 256.567 125.522C256.567 124.178 257.035 123.027 257.969 122.07C258.88 121.113 260.02 120.635 261.387 120.635C262.754 120.635 263.916 121.113 264.873 122.07C265.83 123.027 266.309 124.178 266.309 125.522C266.309 126.867 265.83 128.006 264.873 128.94C263.916 129.875 262.765 130.342 261.421 130.342C260.076 130.342 258.926 129.875 257.969 128.94ZM303.257 84.6436V91.2061C302.095 92.1403 300.955 93.1429 299.839 94.2139C298.722 95.2848 297.241 97.0052 295.396 99.375C293.55 101.745 291.921 104.274 290.508 106.963C289.095 109.629 287.773 113.001 286.543 117.08C285.312 121.159 284.492 125.465 284.082 130H277.007C277.554 122.868 279.035 116.556 281.45 111.064C283.866 105.573 286.338 101.266 288.867 98.1445C291.374 95.0228 293.345 92.8809 294.78 91.7188L295.703 90.9326H270.137V84.6436H303.257ZM323.423 130H316.724V98.0078H305.718V93.1885C308.794 93.1429 311.392 92.334 313.511 90.7617C315.607 89.1895 316.906 87.1501 317.407 84.6436H323.423V130Z" fill="#1A243A"/>
<defs>
<linearGradient id="paint0_linear_1_2" x1="435" y1="388" x2="435" y2="729" gradientUnits="userSpaceOnUse">
<stop stop-color="#E8E7FF"/>
<stop offset="1" stop-color="white" stop-opacity="0"/>
</linearGradient>
</defs>
</svg>